{
  "title" : "",
  "description" : "",
  "author" : "",
  "targetLoudness" : -18.0,
  "shouldApplyLoudnessNormalization" : true,
  "videoFormatFrameRate" : 30,
  "audioFormatSampleRate" : 44100,
  "width" : 2880.0,
  "height" : 1800.0,
  "version" : "4.0",
  "editRate" : 30,
  "authoringClientName" :  {
    "name" : "Camtasia",
    "platform" : "Mac",
    "version" : "2020.0.19"
  },
  "sourceBin" : [
    {
      "id" : 1,
      "src" : "./recordings/1654945980.785796/Aufn . 5.trec",
      "rect" : [0, 0, 2880, 1800],
      "lastMod" : "20220611T105642",
      "loudnessNormalization" : true,
      "sourceTracks" : [
        {
          "range" : [0, 1520],
          "type" : 0,
          "editRate" : 30,
          "trackRect" : [0, 0, 2880, 1800],
          "sampleRate" : 30,
          "bitDepth" : 0,
          "numChannels" : 0,
          "integratedLUFS" : 100.0,
          "peakLevel" : -1.0,
          "metaData" : "2b7b6a01-7a1f-11e2-83d0-0017f200be7f;2b7b6af0-7a1f-11e2-83d0-0017f200be7f;2b7b6af1-7a1f-11e2-83d0-0017f200be7f;2b7b6af2-7a1f-11e2-83d0-0017f200be7f;2b7b6af3-7a1f-11e2-83d0-0017f200be7f;2b7b6af5-7a1f-11e2-83d0-0017f200be7f;2b7b6af6-7a1f-11e2-83d0-0017f200be7f;2b7b6af7-7a1f-11e2-83d0-0017f200be7f;2b7b6af8-7a1f-11e2-83d0-0017f200be7f;2b7b6af9-7a1f-11e2-83d0-0017f200be7f;2b7b6afa-7a1f-11e2-83d0-0017f200be7f;2b7b6afb-7a1f-11e2-83d0-0017f200be7f;2b7b6afc-7a1f-11e2-83d0-0017f200be7f;"
        }
      ],
      "metadata" : {
        "timeAdded" : "20220611T105642.646792"
      }
    }
  ],
  "timeline" : {
    "id" : 2,
    "sceneTrack" : {
      "scenes" : [
        {
          "csml" : {
            "tracks" : [
              {
                "trackIndex" : 0,
                "medias" : [
                  {
                    "id" : 3,
                    "_type" : "ScreenVMFile",
                    "src" : 1,
                    "trackNumber" : 0,
                    "attributes" : {
                      "ident" : "Aufn . 5"
                    },
                    "parameters" : {
                      "translation0" : {
                        "type" : "double",
                        "defaultValue" : 7.71985176030235,
                        "interp" : "eioe"
                      },
                      "translation1" : {
                        "type" : "double",
                        "defaultValue" : 32.9905501756619,
                        "interp" : "eioe"
                      },
                      "scale0" : {
                        "type" : "double",
                        "defaultValue" : 1.03665616686185,
                        "interp" : "eioe"
                      },
                      "scale1" : {
                        "type" : "double",
                        "defaultValue" : 1.03665616686185,
                        "interp" : "eioe"
                      },
                      "sourceCrop0" : {
                        "type" : "double",
                        "defaultValue" : 0.0,
                        "interp" : "eioe"
                      },
                      "sourceCrop1" : {
                        "type" : "double",
                        "defaultValue" : 0.0,
                        "interp" : "eioe"
                      },
                      "sourceCrop2" : {
                        "type" : "double",
                        "defaultValue" : 0.0,
                        "interp" : "eioe"
                      },
                      "sourceCrop3" : {
                        "type" : "double",
                        "defaultValue" : 0.0,
                        "interp" : "eioe"
                      },
                      "geometryCrop0" : {
                        "type" : "double",
                        "defaultValue" : 43.4715289035259,
                        "interp" : "eioe"
                      },
                      "geometryCrop1" : {
                        "type" : "double",
                        "defaultValue" : 63.648008337288,
                        "interp" : "eioe"
                      },
                      "geometryCrop2" : {
                        "type" : "double",
                        "defaultValue" : 58.3652844361305,
                        "interp" : "eioe"
                      },
                      "geometryCrop3" : {
                        "type" : "double",
                        "defaultValue" : 0.0,
                        "interp" : "eioe"
                      },
                      "cursorScale" : {
                        "type" : "double",
                        "defaultValue" : 1.0,
                        "interp" : "linr"
                      },
                      "cursorOpacity" : {
                        "type" : "double",
                        "defaultValue" : 1.0,
                        "interp" : "linr"
                      }
                    },
                    "effects" : [

                    ],
                    "start" : 0,
                    "duration" : 443,
                    "mediaStart" : 80,
                    "mediaDuration" : "443/2",
                    "scalar" : 2,
                    "metadata" : {
                      "clipSpeedAttribute" : true,
                      "default-scale" : "1",
                      "effectApplied" : "none",
                      "lockAspectRatio" : true
                    },
                    "animationTracks" : {

                    }
                  },
                  {
                    "id" : 4,
                    "_type" : "ScreenVMFile",
                    "src" : 1,
                    "trackNumber" : 0,
                    "attributes" : {
                      "ident" : "Aufn . 5"
                    },
                    "parameters" : {
                      "translation0" : {
                        "type" : "double",
                        "defaultValue" : 7.71985176030235,
                        "interp" : "eioe"
                      },
                      "translation1" : {
                        "type" : "double",
                        "defaultValue" : 32.9905501756619,
                        "interp" : "eioe"
                      },
                      "scale0" : {
                        "type" : "double",
                        "defaultValue" : 1.03665616686185,
                        "interp" : "eioe"
                      },
                      "scale1" : {
                        "type" : "double",
                        "defaultValue" : 1.03665616686185,
                        "interp" : "eioe"
                      },
                      "sourceCrop0" : {
                        "type" : "double",
                        "defaultValue" : 0.0,
                        "interp" : "eioe"
                      },
                      "sourceCrop1" : {
                        "type" : "double",
                        "defaultValue" : 0.0,
                        "interp" : "eioe"
                      },
                      "sourceCrop2" : {
                        "type" : "double",
                        "defaultValue" : 0.0,
                        "interp" : "eioe"
                      },
                      "sourceCrop3" : {
                        "type" : "double",
                        "defaultValue" : 0.0,
                        "interp" : "eioe"
                      },
                      "geometryCrop0" : {
                        "type" : "double",
                        "defaultValue" : 43.4715289035259,
                        "interp" : "eioe"
                      },
                      "geometryCrop1" : {
                        "type" : "double",
                        "defaultValue" : 63.648008337288,
                        "interp" : "eioe"
                      },
                      "geometryCrop2" : {
                        "type" : "double",
                        "defaultValue" : 58.3652844361305,
                        "interp" : "eioe"
                      },
                      "geometryCrop3" : {
                        "type" : "double",
                        "defaultValue" : 0.0,
                        "interp" : "eioe"
                      },
                      "cursorScale" : {
                        "type" : "double",
                        "defaultValue" : 1.0,
                        "interp" : "linr"
                      },
                      "cursorOpacity" : {
                        "type" : "double",
                        "defaultValue" : 1.0,
                        "interp" : "linr"
                      }
                    },
                    "effects" : [

                    ],
                    "start" : 443,
                    "duration" : 346,
                    "mediaStart" : "603/2",
                    "mediaDuration" : "691/2",
                    "scalar" : "692/691",
                    "metadata" : {
                      "clipSpeedAttribute" : true,
                      "default-scale" : "1",
                      "effectApplied" : "none",
                      "lockAspectRatio" : true
                    },
                    "animationTracks" : {

                    }
                  },
                  {
                    "id" : 5,
                    "_type" : "ScreenVMFile",
                    "src" : 1,
                    "trackNumber" : 0,
                    "attributes" : {
                      "ident" : "Aufn . 5"
                    },
                    "parameters" : {
                      "translation0" : {
                        "type" : "double",
                        "defaultValue" : 7.71985176030235,
                        "interp" : "eioe"
                      },
                      "translation1" : {
                        "type" : "double",
                        "defaultValue" : 32.9905501756619,
                        "interp" : "eioe"
                      },
                      "scale0" : {
                        "type" : "double",
                        "defaultValue" : 1.03665616686185,
                        "interp" : "eioe"
                      },
                      "scale1" : {
                        "type" : "double",
                        "defaultValue" : 1.03665616686185,
                        "interp" : "eioe"
                      },
                      "sourceCrop0" : {
                        "type" : "double",
                        "defaultValue" : 0.0,
                        "interp" : "eioe"
                      },
                      "sourceCrop1" : {
                        "type" : "double",
                        "defaultValue" : 0.0,
                        "interp" : "eioe"
                      },
                      "sourceCrop2" : {
                        "type" : "double",
                        "defaultValue" : 0.0,
                        "interp" : "eioe"
                      },
                      "sourceCrop3" : {
                        "type" : "double",
                        "defaultValue" : 0.0,
                        "interp" : "eioe"
                      },
                      "geometryCrop0" : {
                        "type" : "double",
                        "defaultValue" : 43.4715289035259,
                        "interp" : "eioe"
                      },
                      "geometryCrop1" : {
                        "type" : "double",
                        "defaultValue" : 63.648008337288,
                        "interp" : "eioe"
                      },
                      "geometryCrop2" : {
                        "type" : "double",
                        "defaultValue" : 58.3652844361305,
                        "interp" : "eioe"
                      },
                      "geometryCrop3" : {
                        "type" : "double",
                        "defaultValue" : 0.0,
                        "interp" : "eioe"
                      },
                      "cursorScale" : {
                        "type" : "double",
                        "defaultValue" : 1.0,
                        "interp" : "linr"
                      },
                      "cursorOpacity" : {
                        "type" : "double",
                        "defaultValue" : 1.0,
                        "interp" : "linr"
                      }
                    },
                    "effects" : [

                    ],
                    "start" : 789,
                    "duration" : 469,
                    "mediaStart" : 647,
                    "mediaDuration" : "469/2",
                    "scalar" : 2,
                    "metadata" : {
                      "clipSpeedAttribute" : true,
                      "default-scale" : "1",
                      "effectApplied" : "none",
                      "lockAspectRatio" : true
                    },
                    "animationTracks" : {

                    }
                  },
                  {
                    "id" : 6,
                    "_type" : "ScreenVMFile",
                    "src" : 1,
                    "trackNumber" : 0,
                    "attributes" : {
                      "ident" : "Aufn . 5"
                    },
                    "parameters" : {
                      "translation0" : {
                        "type" : "double",
                        "defaultValue" : 7.71985176030235,
                        "interp" : "eioe"
                      },
                      "translation1" : {
                        "type" : "double",
                        "defaultValue" : 32.9905501756619,
                        "interp" : "eioe"
                      },
                      "scale0" : {
                        "type" : "double",
                        "defaultValue" : 1.03665616686185,
                        "interp" : "eioe"
                      },
                      "scale1" : {
                        "type" : "double",
                        "defaultValue" : 1.03665616686185,
                        "interp" : "eioe"
                      },
                      "sourceCrop0" : {
                        "type" : "double",
                        "defaultValue" : 0.0,
                        "interp" : "eioe"
                      },
                      "sourceCrop1" : {
                        "type" : "double",
                        "defaultValue" : 0.0,
                        "interp" : "eioe"
                      },
                      "sourceCrop2" : {
                        "type" : "double",
                        "defaultValue" : 0.0,
                        "interp" : "eioe"
                      },
                      "sourceCrop3" : {
                        "type" : "double",
                        "defaultValue" : 0.0,
                        "interp" : "eioe"
                      },
                      "geometryCrop0" : {
                        "type" : "double",
                        "defaultValue" : 43.4715289035259,
                        "interp" : "eioe"
                      },
                      "geometryCrop1" : {
                        "type" : "double",
                        "defaultValue" : 63.648008337288,
                        "interp" : "eioe"
                      },
                      "geometryCrop2" : {
                        "type" : "double",
                        "defaultValue" : 58.3652844361305,
                        "interp" : "eioe"
                      },
                      "geometryCrop3" : {
                        "type" : "double",
                        "defaultValue" : 0.0,
                        "interp" : "eioe"
                      },
                      "cursorScale" : {
                        "type" : "double",
                        "defaultValue" : 1.0,
                        "interp" : "linr"
                      },
                      "cursorOpacity" : {
                        "type" : "double",
                        "defaultValue" : 1.0,
                        "interp" : "linr"
                      }
                    },
                    "effects" : [

                    ],
                    "start" : 1258,
                    "duration" : 243,
                    "mediaStart" : "1763/2",
                    "mediaDuration" : "485/2",
                    "scalar" : "486/485",
                    "metadata" : {
                      "clipSpeedAttribute" : true,
                      "default-scale" : "1",
                      "effectApplied" : "none",
                      "lockAspectRatio" : true
                    },
                    "animationTracks" : {

                    }
                  },
                  {
                    "id" : 7,
                    "_type" : "ScreenVMFile",
                    "src" : 1,
                    "trackNumber" : 0,
                    "attributes" : {
                      "ident" : "Aufn . 5"
                    },
                    "parameters" : {
                      "translation0" : {
                        "type" : "double",
                        "defaultValue" : 7.71985176030235,
                        "interp" : "eioe"
                      },
                      "translation1" : {
                        "type" : "double",
                        "defaultValue" : 32.9905501756619,
                        "interp" : "eioe"
                      },
                      "scale0" : {
                        "type" : "double",
                        "defaultValue" : 1.03665616686185,
                        "interp" : "eioe"
                      },
                      "scale1" : {
                        "type" : "double",
                        "defaultValue" : 1.03665616686185,
                        "interp" : "eioe"
                      },
                      "sourceCrop0" : {
                        "type" : "double",
                        "defaultValue" : 0.0,
                        "interp" : "eioe"
                      },
                      "sourceCrop1" : {
                        "type" : "double",
                        "defaultValue" : 0.0,
                        "interp" : "eioe"
                      },
                      "sourceCrop2" : {
                        "type" : "double",
                        "defaultValue" : 0.0,
                        "interp" : "eioe"
                      },
                      "sourceCrop3" : {
                        "type" : "double",
                        "defaultValue" : 0.0,
                        "interp" : "eioe"
                      },
                      "geometryCrop0" : {
                        "type" : "double",
                        "defaultValue" : 43.4715289035259,
                        "interp" : "eioe"
                      },
                      "geometryCrop1" : {
                        "type" : "double",
                        "defaultValue" : 63.648008337288,
                        "interp" : "eioe"
                      },
                      "geometryCrop2" : {
                        "type" : "double",
                        "defaultValue" : 58.3652844361305,
                        "interp" : "eioe"
                      },
                      "geometryCrop3" : {
                        "type" : "double",
                        "defaultValue" : 0.0,
                        "interp" : "eioe"
                      },
                      "cursorScale" : {
                        "type" : "double",
                        "defaultValue" : 1.0,
                        "interp" : "linr"
                      },
                      "cursorOpacity" : {
                        "type" : "double",
                        "defaultValue" : 1.0,
                        "interp" : "linr"
                      }
                    },
                    "effects" : [

                    ],
                    "start" : 1501,
                    "duration" : 677,
                    "mediaStart" : 1124,
                    "mediaDuration" : "677/2",
                    "scalar" : 2,
                    "metadata" : {
                      "clipSpeedAttribute" : true,
                      "default-scale" : "1",
                      "effectApplied" : "none",
                      "lockAspectRatio" : true
                    },
                    "animationTracks" : {

                    }
                  }
                ]
              },
              {
                "trackIndex" : 1,
                "medias" : [
                  {
                    "id" : 8,
                    "_type" : "Callout",
                    "def" : {
                      "kind" : "remix",
                      "shape" : "text",
                      "style" : "abstract",
                      "height" : {
                        "type" : "double",
                        "defaultValue" : 299.395660731094,
                        "interp" : "linr"
                      },
                      "line-spacing" : {
                        "type" : "double",
                        "defaultValue" : 0.0,
                        "interp" : "linr"
                      },
                      "width" : {
                        "type" : "double",
                        "defaultValue" : 472.94900669038,
                        "interp" : "linr"
                      },
                      "word-wrap" : {
                        "type" : "double",
                        "defaultValue" : 1.0,
                        "interp" : "linr"
                      },
                      "horizontal-alignment" : "left",
                      "resize-behavior" : "resizeText",
                      "text" : "We first load the dataset",
                      "vertical-alignment" : "center",
                      "font" : {
                        "color-blue" : {
                          "type" : "double",
                          "defaultValue" : 0.890196078431372,
                          "interp" : "linr"
                        },
                        "color-green" : {
                          "type" : "double",
                          "defaultValue" : 0.870588235294118,
                          "interp" : "linr"
                        },
                        "color-red" : {
                          "type" : "double",
                          "defaultValue" : 0.847058823529412,
                          "interp" : "linr"
                        },
                        "size" : {
                          "type" : "double",
                          "defaultValue" : 96.0,
                          "interp" : "linr"
                        },
                        "tracking" : {
                          "type" : "double",
                          "defaultValue" : 0.0,
                          "interp" : "linr"
                        },
                        "name" : "Montserrat",
                        "weight" : "Regular"
                      },
                      "textAttributes" : {
                        "type" : "textAttributeList",
                        "keyframes" : [
                          {
                            "endTime" : 0,
                            "time" : 0,
                            "value" : [{"name":"fontItalic","rangeEnd":25,"rangeStart":0,"value":0,"valueType":"int"},{"name":"fgColor","rangeEnd":25,"rangeStart":0,"value":"(35,40,47,255)","valueType":"color"},{"name":"kerning","rangeEnd":25,"rangeStart":0,"value":0,"valueType":"double"},{"name":"fontWeight","rangeEnd":25,"rangeStart":0,"value":400,"valueType":"int"},{"name":"fontSize","rangeEnd":25,"rangeStart":0,"value":86,"valueType":"double"},{"name":"strikethrough","rangeEnd":25,"rangeStart":0,"value":0,"valueType":"int"},{"name":"underline","rangeEnd":25,"rangeStart":0,"value":0,"valueType":"int"},{"name":"fontName","rangeEnd":25,"rangeStart":0,"value":"Montserrat","valueType":"string"}],
                            "duration" : 0
                          }
                        ]
                      }
                    },
                    "attributes" : {
                      "autoRotateText" : true
                    },
                    "parameters" : {
                      "translation0" : {
                        "type" : "double",
                        "defaultValue" : -1146.76366864683,
                        "interp" : "eioe"
                      },
                      "translation1" : {
                        "type" : "double",
                        "defaultValue" : 227.374004733202,
                        "interp" : "eioe"
                      },
                      "sourceCrop0" : {
                        "type" : "double",
                        "defaultValue" : 0.0,
                        "interp" : "eioe"
                      },
                      "sourceCrop1" : {
                        "type" : "double",
                        "defaultValue" : 0.0,
                        "interp" : "eioe"
                      },
                      "sourceCrop2" : {
                        "type" : "double",
                        "defaultValue" : 0.0,
                        "interp" : "eioe"
                      },
                      "sourceCrop3" : {
                        "type" : "double",
                        "defaultValue" : 0.0,
                        "interp" : "eioe"
                      },
                      "geometryCrop0" : {
                        "type" : "double",
                        "defaultValue" : 0.0,
                        "interp" : "eioe"
                      },
                      "geometryCrop1" : {
                        "type" : "double",
                        "defaultValue" : 0.0,
                        "interp" : "eioe"
                      },
                      "geometryCrop2" : {
                        "type" : "double",
                        "defaultValue" : 0.0,
                        "interp" : "eioe"
                      },
                      "geometryCrop3" : {
                        "type" : "double",
                        "defaultValue" : 0.0,
                        "interp" : "eioe"
                      }
                    },
                    "effects" : [

                    ],
                    "start" : 0,
                    "duration" : 105,
                    "mediaStart" : 80,
                    "mediaDuration" : 105,
                    "scalar" : 1,
                    "metadata" : {
                      "AppliedThemeId" : "e59eeb42-ccf0-4a36-bdf9-e630fdab686d",
                      "clipSpeedAttribute" : false,
                      "default-scale" : "1",
                      "default-text" : "{\\rtf1\\ansi\\ansicpg1252\\cocoartf2638\n\\cocoatextscaling0\\cocoaplatform0{\\fonttbl\\f0\\fnil\\fcharset0 Montserrat-Regular;}\n{\\colortbl;\\red255\\green255\\blue255;\\red207\\green214\\blue220;}\n{\\*\\expandedcolortbl;;\\cssrgb\\c84706\\c87059\\c89020;}\n\\pard\\tx560\\tx1120\\tx1680\\tx2240\\tx2800\\tx3360\\tx3920\\tx4480\\tx5040\\tx5600\\tx6160\\tx6720\\pardirnatural\\qc\\partightenfactor0\n\n\\f0\\fs186 \\cf2 \\expnd0\\expndtw0\\kerning0\n\\ulnone We first \n\\fs178 load the \n\\fs206 dataset}",
                      "effectApplied" : "none",
                      "lockAspectRatio" : true
                    },
                    "animationTracks" : {

                    }
                  },
                  {
                    "id" : 9,
                    "_type" : "Callout",
                    "def" : {
                      "kind" : "remix",
                      "shape" : "text",
                      "style" : "abstract",
                      "height" : {
                        "type" : "double",
                        "defaultValue" : 299.395660731094,
                        "interp" : "linr"
                      },
                      "line-spacing" : {
                        "type" : "double",
                        "defaultValue" : 0.0,
                        "interp" : "linr"
                      },
                      "width" : {
                        "type" : "double",
                        "defaultValue" : 472.94900669038,
                        "interp" : "linr"
                      },
                      "word-wrap" : {
                        "type" : "double",
                        "defaultValue" : 1.0,
                        "interp" : "linr"
                      },
                      "horizontal-alignment" : "left",
                      "resize-behavior" : "resizeText",
                      "text" : "It consists of two motifs",
                      "vertical-alignment" : "center",
                      "font" : {
                        "color-blue" : {
                          "type" : "double",
                          "defaultValue" : 0.890196078431372,
                          "interp" : "linr"
                        },
                        "color-green" : {
                          "type" : "double",
                          "defaultValue" : 0.870588235294118,
                          "interp" : "linr"
                        },
                        "color-red" : {
                          "type" : "double",
                          "defaultValue" : 0.847058823529412,
                          "interp" : "linr"
                        },
                        "size" : {
                          "type" : "double",
                          "defaultValue" : 96.0,
                          "interp" : "linr"
                        },
                        "tracking" : {
                          "type" : "double",
                          "defaultValue" : 0.0,
                          "interp" : "linr"
                        },
                        "name" : "Montserrat",
                        "weight" : "Regular"
                      },
                      "textAttributes" : {
                        "type" : "textAttributeList",
                        "keyframes" : [
                          {
                            "endTime" : 0,
                            "time" : 0,
                            "value" : [{"name":"fontName","rangeEnd":25,"rangeStart":0,"value":"Montserrat","valueType":"string"},{"name":"fgColor","rangeEnd":25,"rangeStart":0,"value":"(35,40,47,255)","valueType":"color"},{"name":"underline","rangeEnd":25,"rangeStart":0,"value":0,"valueType":"int"},{"name":"fontWeight","rangeEnd":25,"rangeStart":0,"value":400,"valueType":"int"},{"name":"strikethrough","rangeEnd":25,"rangeStart":0,"value":0,"valueType":"int"},{"name":"fontItalic","rangeEnd":25,"rangeStart":0,"value":0,"valueType":"int"},{"name":"fontSize","rangeEnd":25,"rangeStart":0,"value":86,"valueType":"double"},{"name":"kerning","rangeEnd":25,"rangeStart":0,"value":0,"valueType":"double"}],
                            "duration" : 0
                          }
                        ]
                      }
                    },
                    "attributes" : {
                      "autoRotateText" : true
                    },
                    "parameters" : {
                      "translation0" : {
                        "type" : "double",
                        "defaultValue" : -1146.76366864683,
                        "interp" : "eioe"
                      },
                      "translation1" : {
                        "type" : "double",
                        "defaultValue" : 150.374004733202,
                        "interp" : "eioe"
                      },
                      "sourceCrop0" : {
                        "type" : "double",
                        "defaultValue" : 0.0,
                        "interp" : "eioe"
                      },
                      "sourceCrop1" : {
                        "type" : "double",
                        "defaultValue" : 0.0,
                        "interp" : "eioe"
                      },
                      "sourceCrop2" : {
                        "type" : "double",
                        "defaultValue" : 0.0,
                        "interp" : "eioe"
                      },
                      "sourceCrop3" : {
                        "type" : "double",
                        "defaultValue" : 0.0,
                        "interp" : "eioe"
                      },
                      "geometryCrop0" : {
                        "type" : "double",
                        "defaultValue" : 0.0,
                        "interp" : "eioe"
                      },
                      "geometryCrop1" : {
                        "type" : "double",
                        "defaultValue" : 0.0,
                        "interp" : "eioe"
                      },
                      "geometryCrop2" : {
                        "type" : "double",
                        "defaultValue" : 0.0,
                        "interp" : "eioe"
                      },
                      "geometryCrop3" : {
                        "type" : "double",
                        "defaultValue" : 0.0,
                        "interp" : "eioe"
                      }
                    },
                    "effects" : [

                    ],
                    "start" : 105,
                    "duration" : 200,
                    "mediaStart" : 0,
                    "mediaDuration" : 200,
                    "scalar" : 1,
                    "metadata" : {
                      "AppliedThemeId" : "e59eeb42-ccf0-4a36-bdf9-e630fdab686d",
                      "clipSpeedAttribute" : false,
                      "default-scale" : "1",
                      "default-text" : "{\\rtf1\\ansi\\ansicpg1252\\cocoartf2638\n\\cocoatextscaling0\\cocoaplatform0{\\fonttbl\\f0\\fnil\\fcharset0 Montserrat-Regular;}\n{\\colortbl;\\red255\\green255\\blue255;\\red207\\green214\\blue220;}\n{\\*\\expandedcolortbl;;\\cssrgb\\c84706\\c87059\\c89020;}\n\\pard\\tx560\\tx1120\\tx1680\\tx2240\\tx2800\\tx3360\\tx3920\\tx4480\\tx5040\\tx5600\\tx6160\\tx6720\\pardirnatural\\qc\\partightenfactor0\n\n\\f0\\fs186 \\cf2 \\expnd0\\expndtw0\\kerning0\n\\ulnone We first \n\\fs178 load the \n\\fs206 dataset}",
                      "effectApplied" : "none",
                      "lockAspectRatio" : true
                    },
                    "animationTracks" : {

                    }
                  },
                  {
                    "id" : 10,
                    "_type" : "Callout",
                    "def" : {
                      "kind" : "remix",
                      "shape" : "text",
                      "style" : "abstract",
                      "height" : {
                        "type" : "double",
                        "defaultValue" : 299.395660731094,
                        "interp" : "linr"
                      },
                      "line-spacing" : {
                        "type" : "double",
                        "defaultValue" : 0.0,
                        "interp" : "linr"
                      },
                      "width" : {
                        "type" : "double",
                        "defaultValue" : 472.94900669038,
                        "interp" : "linr"
                      },
                      "word-wrap" : {
                        "type" : "double",
                        "defaultValue" : 1.0,
                        "interp" : "linr"
                      },
                      "horizontal-alignment" : "left",
                      "resize-behavior" : "resizeText",
                      "text" : "We next learn the motif length from the data",
                      "vertical-alignment" : "center",
                      "font" : {
                        "color-blue" : {
                          "type" : "double",
                          "defaultValue" : 0.890196078431372,
                          "interp" : "linr"
                        },
                        "color-green" : {
                          "type" : "double",
                          "defaultValue" : 0.870588235294118,
                          "interp" : "linr"
                        },
                        "color-red" : {
                          "type" : "double",
                          "defaultValue" : 0.847058823529412,
                          "interp" : "linr"
                        },
                        "size" : {
                          "type" : "double",
                          "defaultValue" : 96.0,
                          "interp" : "linr"
                        },
                        "tracking" : {
                          "type" : "double",
                          "defaultValue" : 0.0,
                          "interp" : "linr"
                        },
                        "name" : "Montserrat",
                        "weight" : "Regular"
                      },
                      "textAttributes" : {
                        "type" : "textAttributeList",
                        "keyframes" : [
                          {
                            "endTime" : 0,
                            "time" : 0,
                            "value" : [{"name":"fontItalic","rangeEnd":44,"rangeStart":0,"value":0,"valueType":"int"},{"name":"fontSize","rangeEnd":44,"rangeStart":0,"value":86,"valueType":"double"},{"name":"fontWeight","rangeEnd":44,"rangeStart":0,"value":400,"valueType":"int"},{"name":"fgColor","rangeEnd":44,"rangeStart":0,"value":"(35,40,47,255)","valueType":"color"},{"name":"underline","rangeEnd":44,"rangeStart":0,"value":0,"valueType":"int"},{"name":"strikethrough","rangeEnd":44,"rangeStart":0,"value":0,"valueType":"int"},{"name":"fontName","rangeEnd":44,"rangeStart":0,"value":"Montserrat","valueType":"string"},{"name":"kerning","rangeEnd":44,"rangeStart":0,"value":0,"valueType":"double"}],
                            "duration" : 0
                          }
                        ]
                      }
                    },
                    "attributes" : {
                      "autoRotateText" : true
                    },
                    "parameters" : {
                      "translation0" : {
                        "type" : "double",
                        "defaultValue" : -1146.76366864683,
                        "interp" : "eioe"
                      },
                      "translation1" : {
                        "type" : "double",
                        "defaultValue" : 150.374004733202,
                        "interp" : "eioe"
                      },
                      "sourceCrop0" : {
                        "type" : "double",
                        "defaultValue" : 0.0,
                        "interp" : "eioe"
                      },
                      "sourceCrop1" : {
                        "type" : "double",
                        "defaultValue" : 0.0,
                        "interp" : "eioe"
                      },
                      "sourceCrop2" : {
                        "type" : "double",
                        "defaultValue" : 0.0,
                        "interp" : "eioe"
                      },
                      "sourceCrop3" : {
                        "type" : "double",
                        "defaultValue" : 0.0,
                        "interp" : "eioe"
                      },
                      "geometryCrop0" : {
                        "type" : "double",
                        "defaultValue" : 0.0,
                        "interp" : "eioe"
                      },
                      "geometryCrop1" : {
                        "type" : "double",
                        "defaultValue" : 0.0,
                        "interp" : "eioe"
                      },
                      "geometryCrop2" : {
                        "type" : "double",
                        "defaultValue" : 0.0,
                        "interp" : "eioe"
                      },
                      "geometryCrop3" : {
                        "type" : "double",
                        "defaultValue" : 0.0,
                        "interp" : "eioe"
                      }
                    },
                    "effects" : [

                    ],
                    "start" : 444,
                    "duration" : 345,
                    "mediaStart" : 0,
                    "mediaDuration" : 345,
                    "scalar" : 1,
                    "metadata" : {
                      "AppliedThemeId" : "e59eeb42-ccf0-4a36-bdf9-e630fdab686d",
                      "clipSpeedAttribute" : false,
                      "default-scale" : "1",
                      "default-text" : "{\\rtf1\\ansi\\ansicpg1252\\cocoartf2638\n\\cocoatextscaling0\\cocoaplatform0{\\fonttbl\\f0\\fnil\\fcharset0 Montserrat-Regular;}\n{\\colortbl;\\red255\\green255\\blue255;\\red207\\green214\\blue220;}\n{\\*\\expandedcolortbl;;\\cssrgb\\c84706\\c87059\\c89020;}\n\\pard\\tx560\\tx1120\\tx1680\\tx2240\\tx2800\\tx3360\\tx3920\\tx4480\\tx5040\\tx5600\\tx6160\\tx6720\\pardirnatural\\qc\\partightenfactor0\n\n\\f0\\fs186 \\cf2 \\expnd0\\expndtw0\\kerning0\n\\ulnone We first \n\\fs178 load the \n\\fs206 dataset}",
                      "effectApplied" : "none",
                      "lockAspectRatio" : true
                    },
                    "animationTracks" : {

                    }
                  },
                  {
                    "id" : 11,
                    "_type" : "Callout",
                    "def" : {
                      "kind" : "remix",
                      "shape" : "text",
                      "style" : "abstract",
                      "height" : {
                        "type" : "double",
                        "defaultValue" : 300.07183509875,
                        "interp" : "linr"
                      },
                      "line-spacing" : {
                        "type" : "double",
                        "defaultValue" : 0.0,
                        "interp" : "linr"
                      },
                      "width" : {
                        "type" : "double",
                        "defaultValue" : 381.11431271248,
                        "interp" : "linr"
                      },
                      "word-wrap" : {
                        "type" : "double",
                        "defaultValue" : 1.0,
                        "interp" : "linr"
                      },
                      "horizontal-alignment" : "left",
                      "resize-behavior" : "resizeText",
                      "text" : "A motif was found at length 125 at 128 hz = 1 sec",
                      "vertical-alignment" : "center",
                      "font" : {
                        "color-blue" : {
                          "type" : "double",
                          "defaultValue" : 0.890196078431372,
                          "interp" : "linr"
                        },
                        "color-green" : {
                          "type" : "double",
                          "defaultValue" : 0.870588235294118,
                          "interp" : "linr"
                        },
                        "color-red" : {
                          "type" : "double",
                          "defaultValue" : 0.847058823529412,
                          "interp" : "linr"
                        },
                        "size" : {
                          "type" : "double",
                          "defaultValue" : 96.0,
                          "interp" : "linr"
                        },
                        "tracking" : {
                          "type" : "double",
                          "defaultValue" : 0.0,
                          "interp" : "linr"
                        },
                        "name" : "Montserrat",
                        "weight" : "Regular"
                      },
                      "textAttributes" : {
                        "type" : "textAttributeList",
                        "keyframes" : [
                          {
                            "endTime" : 0,
                            "time" : 0,
                            "value" : [{"name":"kerning","rangeEnd":49,"rangeStart":0,"value":0,"valueType":"double"},{"name":"underline","rangeEnd":49,"rangeStart":0,"value":0,"valueType":"int"},{"name":"fgColor","rangeEnd":49,"rangeStart":0,"value":"(35,40,47,255)","valueType":"color"},{"name":"fontItalic","rangeEnd":49,"rangeStart":0,"value":0,"valueType":"int"},{"name":"fontSize","rangeEnd":49,"rangeStart":0,"value":86,"valueType":"double"},{"name":"fontWeight","rangeEnd":49,"rangeStart":0,"value":400,"valueType":"int"},{"name":"strikethrough","rangeEnd":49,"rangeStart":0,"value":0,"valueType":"int"},{"name":"fontName","rangeEnd":49,"rangeStart":0,"value":"Montserrat","valueType":"string"}],
                            "duration" : 0
                          }
                        ]
                      }
                    },
                    "attributes" : {
                      "autoRotateText" : true
                    },
                    "parameters" : {
                      "translation0" : {
                        "type" : "double",
                        "defaultValue" : -1192.68101563578,
                        "interp" : "eioe"
                      },
                      "translation1" : {
                        "type" : "double",
                        "defaultValue" : 150.035917549374,
                        "interp" : "eioe"
                      },
                      "rotation2" : {
                        "type" : "double",
                        "defaultValue" : -7.9658502016855e-15,
                        "interp" : "eioe"
                      },
                      "sourceCrop0" : {
                        "type" : "double",
                        "defaultValue" : 0.0,
                        "interp" : "eioe"
                      },
                      "sourceCrop1" : {
                        "type" : "double",
                        "defaultValue" : 0.0,
                        "interp" : "eioe"
                      },
                      "sourceCrop2" : {
                        "type" : "double",
                        "defaultValue" : 0.0,
                        "interp" : "eioe"
                      },
                      "sourceCrop3" : {
                        "type" : "double",
                        "defaultValue" : 0.0,
                        "interp" : "eioe"
                      },
                      "geometryCrop0" : {
                        "type" : "double",
                        "defaultValue" : 0.0,
                        "interp" : "eioe"
                      },
                      "geometryCrop1" : {
                        "type" : "double",
                        "defaultValue" : 0.0,
                        "interp" : "eioe"
                      },
                      "geometryCrop2" : {
                        "type" : "double",
                        "defaultValue" : 0.0,
                        "interp" : "eioe"
                      },
                      "geometryCrop3" : {
                        "type" : "double",
                        "defaultValue" : 0.0,
                        "interp" : "eioe"
                      }
                    },
                    "effects" : [

                    ],
                    "start" : 792,
                    "duration" : 267,
                    "mediaStart" : 0,
                    "mediaDuration" : 267,
                    "scalar" : 1,
                    "metadata" : {
                      "AppliedThemeId" : "e59eeb42-ccf0-4a36-bdf9-e630fdab686d",
                      "clipSpeedAttribute" : false,
                      "default-scale" : "1",
                      "default-text" : "{\\rtf1\\ansi\\ansicpg1252\\cocoartf2638\n\\cocoatextscaling0\\cocoaplatform0{\\fonttbl\\f0\\fnil\\fcharset0 Montserrat-Regular;}\n{\\colortbl;\\red255\\green255\\blue255;\\red207\\green214\\blue220;}\n{\\*\\expandedcolortbl;;\\cssrgb\\c84706\\c87059\\c89020;}\n\\pard\\tx560\\tx1120\\tx1680\\tx2240\\tx2800\\tx3360\\tx3920\\tx4480\\tx5040\\tx5600\\tx6160\\tx6720\\pardirnatural\\qc\\partightenfactor0\n\n\\f0\\fs186 \\cf2 \\expnd0\\expndtw0\\kerning0\n\\ulnone We first \n\\fs178 load the \n\\fs206 dataset}",
                      "effectApplied" : "none",
                      "lockAspectRatio" : true
                    },
                    "animationTracks" : {

                    }
                  },
                  {
                    "id" : 12,
                    "_type" : "Callout",
                    "def" : {
                      "kind" : "remix",
                      "shape" : "text",
                      "style" : "abstract",
                      "height" : {
                        "type" : "double",
                        "defaultValue" : 300.07183509875,
                        "interp" : "linr"
                      },
                      "line-spacing" : {
                        "type" : "double",
                        "defaultValue" : 0.0,
                        "interp" : "linr"
                      },
                      "width" : {
                        "type" : "double",
                        "defaultValue" : 381.11431271248,
                        "interp" : "linr"
                      },
                      "word-wrap" : {
                        "type" : "double",
                        "defaultValue" : 1.0,
                        "interp" : "linr"
                      },
                      "horizontal-alignment" : "left",
                      "resize-behavior" : "resizeText",
                      "text" : "We finally search for top motifs",
                      "vertical-alignment" : "center",
                      "font" : {
                        "color-blue" : {
                          "type" : "double",
                          "defaultValue" : 0.890196078431372,
                          "interp" : "linr"
                        },
                        "color-green" : {
                          "type" : "double",
                          "defaultValue" : 0.870588235294118,
                          "interp" : "linr"
                        },
                        "color-red" : {
                          "type" : "double",
                          "defaultValue" : 0.847058823529412,
                          "interp" : "linr"
                        },
                        "size" : {
                          "type" : "double",
                          "defaultValue" : 96.0,
                          "interp" : "linr"
                        },
                        "tracking" : {
                          "type" : "double",
                          "defaultValue" : 0.0,
                          "interp" : "linr"
                        },
                        "name" : "Montserrat",
                        "weight" : "Regular"
                      },
                      "textAttributes" : {
                        "type" : "textAttributeList",
                        "keyframes" : [
                          {
                            "endTime" : 0,
                            "time" : 0,
                            "value" : [{"name":"fontSize","rangeEnd":32,"rangeStart":0,"value":86,"valueType":"double"},{"name":"kerning","rangeEnd":32,"rangeStart":0,"value":0,"valueType":"double"},{"name":"fontItalic","rangeEnd":32,"rangeStart":0,"value":0,"valueType":"int"},{"name":"fontWeight","rangeEnd":32,"rangeStart":0,"value":400,"valueType":"int"},{"name":"underline","rangeEnd":32,"rangeStart":0,"value":0,"valueType":"int"},{"name":"strikethrough","rangeEnd":32,"rangeStart":0,"value":0,"valueType":"int"},{"name":"fontName","rangeEnd":32,"rangeStart":0,"value":"Montserrat","valueType":"string"},{"name":"fgColor","rangeEnd":32,"rangeStart":0,"value":"(35,40,47,255)","valueType":"color"}],
                            "duration" : 0
                          }
                        ]
                      }
                    },
                    "attributes" : {
                      "autoRotateText" : true
                    },
                    "parameters" : {
                      "translation0" : {
                        "type" : "double",
                        "defaultValue" : -1192.68101563578,
                        "interp" : "eioe"
                      },
                      "translation1" : {
                        "type" : "double",
                        "defaultValue" : 150.035917549374,
                        "interp" : "eioe"
                      },
                      "sourceCrop0" : {
                        "type" : "double",
                        "defaultValue" : 0.0,
                        "interp" : "eioe"
                      },
                      "sourceCrop1" : {
                        "type" : "double",
                        "defaultValue" : 0.0,
                        "interp" : "eioe"
                      },
                      "sourceCrop2" : {
                        "type" : "double",
                        "defaultValue" : 0.0,
                        "interp" : "eioe"
                      },
                      "sourceCrop3" : {
                        "type" : "double",
                        "defaultValue" : 0.0,
                        "interp" : "eioe"
                      },
                      "geometryCrop0" : {
                        "type" : "double",
                        "defaultValue" : 0.0,
                        "interp" : "eioe"
                      },
                      "geometryCrop1" : {
                        "type" : "double",
                        "defaultValue" : 0.0,
                        "interp" : "eioe"
                      },
                      "geometryCrop2" : {
                        "type" : "double",
                        "defaultValue" : 0.0,
                        "interp" : "eioe"
                      },
                      "geometryCrop3" : {
                        "type" : "double",
                        "defaultValue" : 0.0,
                        "interp" : "eioe"
                      }
                    },
                    "effects" : [

                    ],
                    "start" : 1134,
                    "duration" : 124,
                    "mediaStart" : 113,
                    "mediaDuration" : 124,
                    "scalar" : 1,
                    "metadata" : {
                      "AppliedThemeId" : "e59eeb42-ccf0-4a36-bdf9-e630fdab686d",
                      "clipSpeedAttribute" : false,
                      "default-scale" : "1",
                      "default-text" : "{\\rtf1\\ansi\\ansicpg1252\\cocoartf2638\n\\cocoatextscaling0\\cocoaplatform0{\\fonttbl\\f0\\fnil\\fcharset0 Montserrat-Regular;}\n{\\colortbl;\\red255\\green255\\blue255;\\red207\\green214\\blue220;}\n{\\*\\expandedcolortbl;;\\cssrgb\\c84706\\c87059\\c89020;}\n\\pard\\tx560\\tx1120\\tx1680\\tx2240\\tx2800\\tx3360\\tx3920\\tx4480\\tx5040\\tx5600\\tx6160\\tx6720\\pardirnatural\\qc\\partightenfactor0\n\n\\f0\\fs186 \\cf2 \\expnd0\\expndtw0\\kerning0\n\\ulnone We first \n\\fs178 load the \n\\fs206 dataset}",
                      "effectApplied" : "none",
                      "lockAspectRatio" : true
                    },
                    "animationTracks" : {

                    }
                  },
                  {
                    "id" : 13,
                    "_type" : "Callout",
                    "def" : {
                      "kind" : "remix",
                      "shape" : "text",
                      "style" : "abstract",
                      "height" : {
                        "type" : "double",
                        "defaultValue" : 300.07183509875,
                        "interp" : "linr"
                      },
                      "line-spacing" : {
                        "type" : "double",
                        "defaultValue" : 0.0,
                        "interp" : "linr"
                      },
                      "width" : {
                        "type" : "double",
                        "defaultValue" : 381.11431271248,
                        "interp" : "linr"
                      },
                      "word-wrap" : {
                        "type" : "double",
                        "defaultValue" : 1.0,
                        "interp" : "linr"
                      },
                      "horizontal-alignment" : "left",
                      "resize-behavior" : "resizeText",
                      "text" : "There are two TOP motifs at k=6 and k=16",
                      "vertical-alignment" : "center",
                      "font" : {
                        "color-blue" : {
                          "type" : "double",
                          "defaultValue" : 0.890196078431372,
                          "interp" : "linr"
                        },
                        "color-green" : {
                          "type" : "double",
                          "defaultValue" : 0.870588235294118,
                          "interp" : "linr"
                        },
                        "color-red" : {
                          "type" : "double",
                          "defaultValue" : 0.847058823529412,
                          "interp" : "linr"
                        },
                        "size" : {
                          "type" : "double",
                          "defaultValue" : 96.0,
                          "interp" : "linr"
                        },
                        "tracking" : {
                          "type" : "double",
                          "defaultValue" : 0.0,
                          "interp" : "linr"
                        },
                        "name" : "Montserrat",
                        "weight" : "Regular"
                      },
                      "textAttributes" : {
                        "type" : "textAttributeList",
                        "keyframes" : [
                          {
                            "endTime" : 0,
                            "time" : 0,
                            "value" : [{"name":"kerning","rangeEnd":40,"rangeStart":0,"value":0,"valueType":"double"},{"name":"fontSize","rangeEnd":40,"rangeStart":0,"value":86,"valueType":"double"},{"name":"underline","rangeEnd":40,"rangeStart":0,"value":0,"valueType":"int"},{"name":"strikethrough","rangeEnd":40,"rangeStart":0,"value":0,"valueType":"int"},{"name":"fgColor","rangeEnd":40,"rangeStart":0,"value":"(35,40,47,255)","valueType":"color"},{"name":"fontWeight","rangeEnd":40,"rangeStart":0,"value":400,"valueType":"int"},{"name":"fontItalic","rangeEnd":40,"rangeStart":0,"value":0,"valueType":"int"},{"name":"fontName","rangeEnd":40,"rangeStart":0,"value":"Montserrat","valueType":"string"}],
                            "duration" : 0
                          }
                        ]
                      }
                    },
                    "attributes" : {
                      "autoRotateText" : true
                    },
                    "parameters" : {
                      "translation0" : {
                        "type" : "double",
                        "defaultValue" : -1191.68101563578,
                        "interp" : "eioe"
                      },
                      "translation1" : {
                        "type" : "double",
                        "defaultValue" : 150.035917549374,
                        "interp" : "eioe"
                      },
                      "sourceCrop0" : {
                        "type" : "double",
                        "defaultValue" : 0.0,
                        "interp" : "eioe"
                      },
                      "sourceCrop1" : {
                        "type" : "double",
                        "defaultValue" : 0.0,
                        "interp" : "eioe"
                      },
                      "sourceCrop2" : {
                        "type" : "double",
                        "defaultValue" : 0.0,
                        "interp" : "eioe"
                      },
                      "sourceCrop3" : {
                        "type" : "double",
                        "defaultValue" : 0.0,
                        "interp" : "eioe"
                      },
                      "geometryCrop0" : {
                        "type" : "double",
                        "defaultValue" : 0.0,
                        "interp" : "eioe"
                      },
                      "geometryCrop1" : {
                        "type" : "double",
                        "defaultValue" : 0.0,
                        "interp" : "eioe"
                      },
                      "geometryCrop2" : {
                        "type" : "double",
                        "defaultValue" : 0.0,
                        "interp" : "eioe"
                      },
                      "geometryCrop3" : {
                        "type" : "double",
                        "defaultValue" : 0.0,
                        "interp" : "eioe"
                      }
                    },
                    "effects" : [

                    ],
                    "start" : 1348,
                    "duration" : 153,
                    "mediaStart" : 113,
                    "mediaDuration" : 153,
                    "scalar" : 1,
                    "metadata" : {
                      "AppliedThemeId" : "e59eeb42-ccf0-4a36-bdf9-e630fdab686d",
                      "clipSpeedAttribute" : false,
                      "default-scale" : "1",
                      "default-text" : "{\\rtf1\\ansi\\ansicpg1252\\cocoartf2638\n\\cocoatextscaling0\\cocoaplatform0{\\fonttbl\\f0\\fnil\\fcharset0 Montserrat-Regular;}\n{\\colortbl;\\red255\\green255\\blue255;\\red207\\green214\\blue220;}\n{\\*\\expandedcolortbl;;\\cssrgb\\c84706\\c87059\\c89020;}\n\\pard\\tx560\\tx1120\\tx1680\\tx2240\\tx2800\\tx3360\\tx3920\\tx4480\\tx5040\\tx5600\\tx6160\\tx6720\\pardirnatural\\qc\\partightenfactor0\n\n\\f0\\fs186 \\cf2 \\expnd0\\expndtw0\\kerning0\n\\ulnone We first \n\\fs178 load the \n\\fs206 dataset}",
                      "effectApplied" : "none",
                      "lockAspectRatio" : true
                    },
                    "animationTracks" : {

                    }
                  },
                  {
                    "id" : 14,
                    "_type" : "Callout",
                    "def" : {
                      "kind" : "remix",
                      "shape" : "text",
                      "style" : "abstract",
                      "height" : {
                        "type" : "double",
                        "defaultValue" : 300.07183509875,
                        "interp" : "linr"
                      },
                      "line-spacing" : {
                        "type" : "double",
                        "defaultValue" : 0.0,
                        "interp" : "linr"
                      },
                      "width" : {
                        "type" : "double",
                        "defaultValue" : 380.445613484486,
                        "interp" : "linr"
                      },
                      "word-wrap" : {
                        "type" : "double",
                        "defaultValue" : 1.0,
                        "interp" : "linr"
                      },
                      "horizontal-alignment" : "left",
                      "resize-behavior" : "resizeText",
                      "text" : "These are the k=6 calibrations and k=16 heartbeats",
                      "vertical-alignment" : "center",
                      "font" : {
                        "color-blue" : {
                          "type" : "double",
                          "defaultValue" : 0.890196078431372,
                          "interp" : "linr"
                        },
                        "color-green" : {
                          "type" : "double",
                          "defaultValue" : 0.870588235294118,
                          "interp" : "linr"
                        },
                        "color-red" : {
                          "type" : "double",
                          "defaultValue" : 0.847058823529412,
                          "interp" : "linr"
                        },
                        "size" : {
                          "type" : "double",
                          "defaultValue" : 96.0,
                          "interp" : "linr"
                        },
                        "tracking" : {
                          "type" : "double",
                          "defaultValue" : 0.0,
                          "interp" : "linr"
                        },
                        "name" : "Montserrat",
                        "weight" : "Regular"
                      },
                      "textAttributes" : {
                        "type" : "textAttributeList",
                        "keyframes" : [
                          {
                            "endTime" : 0,
                            "time" : 0,
                            "value" : [{"name":"kerning","rangeEnd":50,"rangeStart":0,"value":0,"valueType":"double"},{"name":"fontItalic","rangeEnd":50,"rangeStart":0,"value":0,"valueType":"int"},{"name":"fontWeight","rangeEnd":50,"rangeStart":0,"value":400,"valueType":"int"},{"name":"fontSize","rangeEnd":50,"rangeStart":0,"value":86,"valueType":"double"},{"name":"fgColor","rangeEnd":50,"rangeStart":0,"value":"(35,40,47,255)","valueType":"color"},{"name":"strikethrough","rangeEnd":50,"rangeStart":0,"value":0,"valueType":"int"},{"name":"underline","rangeEnd":50,"rangeStart":0,"value":0,"valueType":"int"},{"name":"fontName","rangeEnd":50,"rangeStart":0,"value":"Montserrat","valueType":"string"}],
                            "duration" : 0
                          }
                        ]
                      }
                    },
                    "attributes" : {
                      "autoRotateText" : true
                    },
                    "parameters" : {
                      "translation0" : {
                        "type" : "double",
                        "defaultValue" : -1192.34666602178,
                        "interp" : "eioe"
                      },
                      "translation1" : {
                        "type" : "double",
                        "defaultValue" : 150.035917549374,
                        "interp" : "eioe"
                      },
                      "sourceCrop0" : {
                        "type" : "double",
                        "defaultValue" : 0.0,
                        "interp" : "eioe"
                      },
                      "sourceCrop1" : {
                        "type" : "double",
                        "defaultValue" : 0.0,
                        "interp" : "eioe"
                      },
                      "sourceCrop2" : {
                        "type" : "double",
                        "defaultValue" : 0.0,
                        "interp" : "eioe"
                      },
                      "sourceCrop3" : {
                        "type" : "double",
                        "defaultValue" : 0.0,
                        "interp" : "eioe"
                      },
                      "geometryCrop0" : {
                        "type" : "double",
                        "defaultValue" : 0.0,
                        "interp" : "eioe"
                      },
                      "geometryCrop1" : {
                        "type" : "double",
                        "defaultValue" : 0.0,
                        "interp" : "eioe"
                      },
                      "geometryCrop2" : {
                        "type" : "double",
                        "defaultValue" : 0.0,
                        "interp" : "eioe"
                      },
                      "geometryCrop3" : {
                        "type" : "double",
                        "defaultValue" : 0.0,
                        "interp" : "eioe"
                      }
                    },
                    "effects" : [

                    ],
                    "start" : 1724,
                    "duration" : 410,
                    "mediaStart" : 297,
                    "mediaDuration" : 410,
                    "scalar" : 1,
                    "metadata" : {
                      "AppliedThemeId" : "e59eeb42-ccf0-4a36-bdf9-e630fdab686d",
                      "clipSpeedAttribute" : false,
                      "default-scale" : "1",
                      "default-text" : "{\\rtf1\\ansi\\ansicpg1252\\cocoartf2638\n\\cocoatextscaling0\\cocoaplatform0{\\fonttbl\\f0\\fnil\\fcharset0 Montserrat-Regular;}\n{\\colortbl;\\red255\\green255\\blue255;\\red207\\green214\\blue220;}\n{\\*\\expandedcolortbl;;\\cssrgb\\c84706\\c87059\\c89020;}\n\\pard\\tx560\\tx1120\\tx1680\\tx2240\\tx2800\\tx3360\\tx3920\\tx4480\\tx5040\\tx5600\\tx6160\\tx6720\\pardirnatural\\qc\\partightenfactor0\n\n\\f0\\fs186 \\cf2 \\expnd0\\expndtw0\\kerning0\n\\ulnone We first \n\\fs178 load the \n\\fs206 dataset}",
                      "effectApplied" : "none",
                      "lockAspectRatio" : true
                    },
                    "animationTracks" : {

                    }
                  }
                ]
              },
              {
                "trackIndex" : 2,
                "medias" : [
                  {
                    "id" : 15,
                    "_type" : "Callout",
                    "def" : {
                      "kind" : "remix",
                      "shape" : "shape-rectangle",
                      "style" : "abstract",
                      "fill-color-blue" : 0.0,
                      "fill-color-green" : 0.686274509803922,
                      "fill-color-opacity" : 1.0,
                      "fill-color-red" : 1.0,
                      "height" : 72.1138011352749,
                      "stroke-color-blue" : 1.0,
                      "stroke-color-green" : 1.0,
                      "stroke-color-opacity" : 1.0,
                      "stroke-color-red" : 1.0,
                      "stroke-width" : 0.0,
                      "width" : 497.003387451172,
                      "fill-style" : "solid",
                      "stroke-style" : "solid"
                    },
                    "attributes" : {
                      "autoRotateText" : true
                    },
                    "parameters" : {
                      "translation0" : -377.106734887065,
                      "translation1" : 224.728204603749,
                      "sourceCrop0" : 0.0,
                      "sourceCrop1" : 0.0,
                      "sourceCrop2" : 0.0,
                      "sourceCrop3" : 0.0,
                      "geometryCrop0" : 0.0,
                      "geometryCrop1" : 0.0,
                      "geometryCrop2" : 0.0,
                      "geometryCrop3" : 0.0
                    },
                    "effects" : [

                    ],
                    "start" : 104,
                    "duration" : 180,
                    "mediaStart" : 0,
                    "mediaDuration" : 180,
                    "scalar" : 1,
                    "metadata" : {
                      "AppliedThemeId" : "e59eeb42-ccf0-4a36-bdf9-e630fdab686d",
                      "clipSpeedAttribute" : false,
                      "default-callout-fill-color" : "(115,153,34,255)",
                      "default-callout-fill-color-opacity" : "1",
                      "default-scale" : "1",
                      "effectApplied" : "none",
                      "lockAspectRatio" : true
                    },
                    "animationTracks" : {

                    }
                  },
                  {
                    "id" : 16,
                    "_type" : "Callout",
                    "def" : {
                      "kind" : "remix",
                      "shape" : "arrow",
                      "style" : "abstract",
                      "stroke-color-blue" : 0.133333333333333,
                      "stroke-color-green" : 0.6,
                      "stroke-color-opacity" : 1.0,
                      "stroke-color-red" : 0.450980392156863,
                      "stroke-width" : 8.0,
                      "tail-x" : {
                        "type" : "double",
                        "defaultValue" : 673.622355941389,
                        "interp" : "eioe"
                      },
                      "tail-y" : {
                        "type" : "double",
                        "defaultValue" : -55.1778181160041,
                        "interp" : "eioe"
                      },
                      "shape-anchor" : "none",
                      "shape-tail" : "arrow",
                      "stroke-style" : "dot"
                    },
                    "attributes" : {
                      "autoRotateText" : true
                    },
                    "parameters" : {
                      "translation0" : -990.204948834027,
                      "translation1" : 212.682141326512,
                      "sourceCrop0" : 0.0,
                      "sourceCrop1" : 0.0,
                      "sourceCrop2" : 0.0,
                      "sourceCrop3" : 0.0,
                      "geometryCrop0" : 0.0,
                      "geometryCrop1" : 0.0,
                      "geometryCrop2" : 0.0,
                      "geometryCrop3" : 0.0
                    },
                    "effects" : [

                    ],
                    "start" : 792,
                    "duration" : 267,
                    "mediaStart" : 0,
                    "mediaDuration" : 267,
                    "scalar" : 1,
                    "metadata" : {
                      "AppliedThemeId" : "e59eeb42-ccf0-4a36-bdf9-e630fdab686d",
                      "clipSpeedAttribute" : false,
                      "default-scale" : "1",
                      "effectApplied" : "none",
                      "lockAspectRatio" : true
                    },
                    "animationTracks" : {

                    }
                  },
                  {
                    "id" : 17,
                    "_type" : "Callout",
                    "def" : {
                      "kind" : "remix",
                      "shape" : "arrow",
                      "style" : "abstract",
                      "stroke-color-blue" : 0.133333333333333,
                      "stroke-color-green" : 0.6,
                      "stroke-color-opacity" : 1.0,
                      "stroke-color-red" : 0.450980392156863,
                      "stroke-width" : 8.0,
                      "tail-x" : {
                        "type" : "double",
                        "defaultValue" : 738.121436023399,
                        "interp" : "eioe"
                      },
                      "tail-y" : {
                        "type" : "double",
                        "defaultValue" : -195.442547091067,
                        "interp" : "eioe"
                      },
                      "shape-anchor" : "none",
                      "shape-tail" : "arrow",
                      "stroke-style" : "dot"
                    },
                    "attributes" : {
                      "autoRotateText" : true
                    },
                    "parameters" : {
                      "translation0" : -1034.35819021318,
                      "translation1" : 132.803909005243,
                      "sourceCrop0" : 0.0,
                      "sourceCrop1" : 0.0,
                      "sourceCrop2" : 0.0,
                      "sourceCrop3" : 0.0,
                      "geometryCrop0" : 0.0,
                      "geometryCrop1" : 0.0,
                      "geometryCrop2" : 0.0,
                      "geometryCrop3" : 0.0
                    },
                    "effects" : [

                    ],
                    "start" : 1348,
                    "duration" : 153,
                    "mediaStart" : 0,
                    "mediaDuration" : 153,
                    "scalar" : 1,
                    "metadata" : {
                      "AppliedThemeId" : "e59eeb42-ccf0-4a36-bdf9-e630fdab686d",
                      "clipSpeedAttribute" : false,
                      "default-scale" : "1",
                      "effectApplied" : "none"
                    },
                    "animationTracks" : {

                    }
                  },
                  {
                    "id" : 18,
                    "_type" : "Callout",
                    "def" : {
                      "kind" : "remix",
                      "shape" : "arrow",
                      "style" : "abstract",
                      "stroke-color-blue" : 0.133333333333333,
                      "stroke-color-green" : 0.6,
                      "stroke-color-opacity" : 1.0,
                      "stroke-color-red" : 0.450980392156863,
                      "stroke-width" : 8.0,
                      "tail-x" : {
                        "type" : "double",
                        "defaultValue" : 422.2522370544,
                        "interp" : "eioe"
                      },
                      "tail-y" : {
                        "type" : "double",
                        "defaultValue" : 0.0,
                        "interp" : "eioe"
                      },
                      "shape-anchor" : "none",
                      "shape-tail" : "arrow",
                      "stroke-style" : "dot"
                    },
                    "attributes" : {
                      "autoRotateText" : true
                    },
                    "parameters" : {
                      "translation0" : -980.851971890821,
                      "translation1" : 173.016955942777,
                      "sourceCrop0" : 0.0,
                      "sourceCrop1" : 0.0,
                      "sourceCrop2" : 0.0,
                      "sourceCrop3" : 0.0,
                      "geometryCrop0" : 0.0,
                      "geometryCrop1" : 0.0,
                      "geometryCrop2" : 0.0,
                      "geometryCrop3" : 0.0
                    },
                    "effects" : [

                    ],
                    "start" : 1838,
                    "duration" : 91,
                    "mediaStart" : 0,
                    "mediaDuration" : 91,
                    "scalar" : 1,
                    "metadata" : {
                      "AppliedThemeId" : "e59eeb42-ccf0-4a36-bdf9-e630fdab686d",
                      "clipSpeedAttribute" : false,
                      "default-scale" : "1",
                      "effectApplied" : "none"
                    },
                    "animationTracks" : {

                    }
                  }
                ]
              },
              {
                "trackIndex" : 3,
                "medias" : [
                  {
                    "id" : 19,
                    "_type" : "Callout",
                    "def" : {
                      "kind" : "remix",
                      "shape" : "shape-rectangle",
                      "style" : "abstract",
                      "fill-color-blue" : {
                        "type" : "double",
                        "defaultValue" : 0.133333333333333,
                        "interp" : "linr"
                      },
                      "fill-color-green" : {
                        "type" : "double",
                        "defaultValue" : 0.6,
                        "interp" : "linr"
                      },
                      "fill-color-opacity" : {
                        "type" : "double",
                        "defaultValue" : 1.0,
                        "interp" : "linr"
                      },
                      "fill-color-red" : {
                        "type" : "double",
                        "defaultValue" : 0.450980392156863,
                        "interp" : "linr"
                      },
                      "height" : {
                        "type" : "double",
                        "defaultValue" : 76.1138016764362,
                        "interp" : "linr"
                      },
                      "stroke-color-blue" : {
                        "type" : "double",
                        "defaultValue" : 1.0,
                        "interp" : "linr"
                      },
                      "stroke-color-green" : {
                        "type" : "double",
                        "defaultValue" : 1.0,
                        "interp" : "linr"
                      },
                      "stroke-color-opacity" : {
                        "type" : "double",
                        "defaultValue" : 0.304453134536743,
                        "interp" : "linr"
                      },
                      "stroke-color-red" : {
                        "type" : "double",
                        "defaultValue" : 1.0,
                        "interp" : "linr"
                      },
                      "stroke-width" : {
                        "type" : "double",
                        "defaultValue" : 0.0,
                        "interp" : "linr"
                      },
                      "width" : {
                        "type" : "double",
                        "defaultValue" : 888.070338643319,
                        "interp" : "linr"
                      },
                      "fill-style" : "solid",
                      "stroke-style" : "solid"
                    },
                    "attributes" : {
                      "autoRotateText" : true
                    },
                    "parameters" : {
                      "translation0" : {
                        "type" : "double",
                        "defaultValue" : 444.035169321659,
                        "interp" : "eioe"
                      },
                      "translation1" : {
                        "type" : "double",
                        "defaultValue" : 222.728205299559,
                        "interp" : "eioe"
                      },
                      "sourceCrop0" : {
                        "type" : "double",
                        "defaultValue" : 0.0,
                        "interp" : "eioe"
                      },
                      "sourceCrop1" : {
                        "type" : "double",
                        "defaultValue" : 0.0,
                        "interp" : "eioe"
                      },
                      "sourceCrop2" : {
                        "type" : "double",
                        "defaultValue" : 0.0,
                        "interp" : "eioe"
                      },
                      "sourceCrop3" : {
                        "type" : "double",
                        "defaultValue" : 0.0,
                        "interp" : "eioe"
                      },
                      "geometryCrop0" : {
                        "type" : "double",
                        "defaultValue" : 0.0,
                        "interp" : "eioe"
                      },
                      "geometryCrop1" : {
                        "type" : "double",
                        "defaultValue" : 0.0,
                        "interp" : "eioe"
                      },
                      "geometryCrop2" : {
                        "type" : "double",
                        "defaultValue" : 0.0,
                        "interp" : "eioe"
                      },
                      "geometryCrop3" : {
                        "type" : "double",
                        "defaultValue" : 0.0,
                        "interp" : "eioe"
                      }
                    },
                    "effects" : [

                    ],
                    "start" : 104,
                    "duration" : 182,
                    "mediaStart" : 0,
                    "mediaDuration" : 182,
                    "scalar" : 1,
                    "metadata" : {
                      "AppliedThemeId" : "e59eeb42-ccf0-4a36-bdf9-e630fdab686d",
                      "clipSpeedAttribute" : false,
                      "default-callout-fill-color" : "(115,153,34,255)",
                      "default-callout-fill-color-opacity" : "1",
                      "default-callout-stroke-color-opacity" : "1",
                      "default-scale" : "1",
                      "effectApplied" : "none",
                      "lockAspectRatio" : true
                    },
                    "animationTracks" : {

                    }
                  },
                  {
                    "id" : 20,
                    "_type" : "Callout",
                    "def" : {
                      "kind" : "remix",
                      "shape" : "arrow",
                      "style" : "abstract",
                      "stroke-color-blue" : {
                        "type" : "double",
                        "defaultValue" : 0.133333333333333,
                        "interp" : "linr"
                      },
                      "stroke-color-green" : {
                        "type" : "double",
                        "defaultValue" : 0.6,
                        "interp" : "linr"
                      },
                      "stroke-color-opacity" : {
                        "type" : "double",
                        "defaultValue" : 1.0,
                        "interp" : "linr"
                      },
                      "stroke-color-red" : {
                        "type" : "double",
                        "defaultValue" : 0.450980392156863,
                        "interp" : "linr"
                      },
                      "stroke-width" : {
                        "type" : "double",
                        "defaultValue" : 8.0,
                        "interp" : "linr"
                      },
                      "tail-x" : {
                        "type" : "double",
                        "defaultValue" : 596.782735560972,
                        "interp" : "eioe"
                      },
                      "tail-y" : {
                        "type" : "double",
                        "defaultValue" : -97.042442511043,
                        "interp" : "eioe"
                      },
                      "shape-anchor" : "none",
                      "shape-tail" : "arrow",
                      "stroke-style" : "dot"
                    },
                    "attributes" : {
                      "autoRotateText" : true
                    },
                    "parameters" : {
                      "translation0" : {
                        "type" : "double",
                        "defaultValue" : -981.913376008378,
                        "interp" : "eioe"
                      },
                      "translation1" : {
                        "type" : "double",
                        "defaultValue" : 183.286777148101,
                        "interp" : "eioe"
                      },
                      "sourceCrop0" : {
                        "type" : "double",
                        "defaultValue" : 0.0,
                        "interp" : "eioe"
                      },
                      "sourceCrop1" : {
                        "type" : "double",
                        "defaultValue" : 0.0,
                        "interp" : "eioe"
                      },
                      "sourceCrop2" : {
                        "type" : "double",
                        "defaultValue" : 0.0,
                        "interp" : "eioe"
                      },
                      "sourceCrop3" : {
                        "type" : "double",
                        "defaultValue" : 0.0,
                        "interp" : "eioe"
                      },
                      "geometryCrop0" : {
                        "type" : "double",
                        "defaultValue" : 0.0,
                        "interp" : "eioe"
                      },
                      "geometryCrop1" : {
                        "type" : "double",
                        "defaultValue" : 0.0,
                        "interp" : "eioe"
                      },
                      "geometryCrop2" : {
                        "type" : "double",
                        "defaultValue" : 0.0,
                        "interp" : "eioe"
                      },
                      "geometryCrop3" : {
                        "type" : "double",
                        "defaultValue" : 0.0,
                        "interp" : "eioe"
                      }
                    },
                    "effects" : [

                    ],
                    "start" : 792,
                    "duration" : 267,
                    "mediaStart" : 0,
                    "mediaDuration" : 267,
                    "scalar" : 1,
                    "metadata" : {
                      "AppliedThemeId" : "e59eeb42-ccf0-4a36-bdf9-e630fdab686d",
                      "clipSpeedAttribute" : false,
                      "default-scale" : "1",
                      "effectApplied" : "none",
                      "lockAspectRatio" : true
                    },
                    "animationTracks" : {

                    }
                  },
                  {
                    "id" : 21,
                    "_type" : "Callout",
                    "def" : {
                      "kind" : "remix",
                      "shape" : "arrow",
                      "style" : "abstract",
                      "stroke-color-blue" : {
                        "type" : "double",
                        "defaultValue" : 0.133333333333333,
                        "interp" : "linr"
                      },
                      "stroke-color-green" : {
                        "type" : "double",
                        "defaultValue" : 0.6,
                        "interp" : "linr"
                      },
                      "stroke-color-opacity" : {
                        "type" : "double",
                        "defaultValue" : 1.0,
                        "interp" : "linr"
                      },
                      "stroke-color-red" : {
                        "type" : "double",
                        "defaultValue" : 0.450980392156863,
                        "interp" : "linr"
                      },
                      "stroke-width" : {
                        "type" : "double",
                        "defaultValue" : 8.0,
                        "interp" : "linr"
                      },
                      "tail-x" : {
                        "type" : "double",
                        "defaultValue" : 534.836870713096,
                        "interp" : "eioe"
                      },
                      "tail-y" : {
                        "type" : "double",
                        "defaultValue" : -303.62997673536,
                        "interp" : "eioe"
                      },
                      "shape-anchor" : "none",
                      "shape-tail" : "arrow",
                      "stroke-style" : "dot"
                    },
                    "attributes" : {
                      "autoRotateText" : true
                    },
                    "parameters" : {
                      "translation0" : {
                        "type" : "double",
                        "defaultValue" : -1034.35819021318,
                        "interp" : "eioe"
                      },
                      "translation1" : {
                        "type" : "double",
                        "defaultValue" : 132.803909005243,
                        "interp" : "eioe"
                      },
                      "sourceCrop0" : {
                        "type" : "double",
                        "defaultValue" : 0.0,
                        "interp" : "eioe"
                      },
                      "sourceCrop1" : {
                        "type" : "double",
                        "defaultValue" : 0.0,
                        "interp" : "eioe"
                      },
                      "sourceCrop2" : {
                        "type" : "double",
                        "defaultValue" : 0.0,
                        "interp" : "eioe"
                      },
                      "sourceCrop3" : {
                        "type" : "double",
                        "defaultValue" : 0.0,
                        "interp" : "eioe"
                      },
                      "geometryCrop0" : {
                        "type" : "double",
                        "defaultValue" : 0.0,
                        "interp" : "eioe"
                      },
                      "geometryCrop1" : {
                        "type" : "double",
                        "defaultValue" : 0.0,
                        "interp" : "eioe"
                      },
                      "geometryCrop2" : {
                        "type" : "double",
                        "defaultValue" : 0.0,
                        "interp" : "eioe"
                      },
                      "geometryCrop3" : {
                        "type" : "double",
                        "defaultValue" : 0.0,
                        "interp" : "eioe"
                      }
                    },
                    "effects" : [

                    ],
                    "start" : 1348,
                    "duration" : 150,
                    "mediaStart" : 0,
                    "mediaDuration" : 150,
                    "scalar" : 1,
                    "metadata" : {
                      "AppliedThemeId" : "e59eeb42-ccf0-4a36-bdf9-e630fdab686d",
                      "clipSpeedAttribute" : false,
                      "default-scale" : "1",
                      "effectApplied" : "none"
                    },
                    "animationTracks" : {

                    }
                  },
                  {
                    "id" : 22,
                    "_type" : "Callout",
                    "def" : {
                      "kind" : "remix",
                      "shape" : "arrow",
                      "style" : "abstract",
                      "stroke-color-blue" : {
                        "type" : "double",
                        "defaultValue" : 0.133333333333333,
                        "interp" : "linr"
                      },
                      "stroke-color-green" : {
                        "type" : "double",
                        "defaultValue" : 0.6,
                        "interp" : "linr"
                      },
                      "stroke-color-opacity" : {
                        "type" : "double",
                        "defaultValue" : 1.0,
                        "interp" : "linr"
                      },
                      "stroke-color-red" : {
                        "type" : "double",
                        "defaultValue" : 0.450980392156863,
                        "interp" : "linr"
                      },
                      "stroke-width" : {
                        "type" : "double",
                        "defaultValue" : 8.0,
                        "interp" : "linr"
                      },
                      "tail-x" : {
                        "type" : "double",
                        "defaultValue" : -57.4077455472916,
                        "interp" : "eioe"
                      },
                      "tail-y" : {
                        "type" : "double",
                        "defaultValue" : -449.771153471573,
                        "interp" : "eioe"
                      },
                      "shape-anchor" : "none",
                      "shape-tail" : "arrow",
                      "stroke-style" : "dot"
                    },
                    "attributes" : {
                      "autoRotateText" : true
                    },
                    "parameters" : {
                      "translation0" : {
                        "type" : "double",
                        "defaultValue" : -419.528739363819,
                        "interp" : "eioe"
                      },
                      "translation1" : {
                        "type" : "double",
                        "defaultValue" : 80.6661355614859,
                        "interp" : "eioe"
                      },
                      "sourceCrop0" : {
                        "type" : "double",
                        "defaultValue" : 0.0,
                        "interp" : "eioe"
                      },
                      "sourceCrop1" : {
                        "type" : "double",
                        "defaultValue" : 0.0,
                        "interp" : "eioe"
                      },
                      "sourceCrop2" : {
                        "type" : "double",
                        "defaultValue" : 0.0,
                        "interp" : "eioe"
                      },
                      "sourceCrop3" : {
                        "type" : "double",
                        "defaultValue" : 0.0,
                        "interp" : "eioe"
                      },
                      "geometryCrop0" : {
                        "type" : "double",
                        "defaultValue" : 0.0,
                        "interp" : "eioe"
                      },
                      "geometryCrop1" : {
                        "type" : "double",
                        "defaultValue" : 0.0,
                        "interp" : "eioe"
                      },
                      "geometryCrop2" : {
                        "type" : "double",
                        "defaultValue" : 0.0,
                        "interp" : "eioe"
                      },
                      "geometryCrop3" : {
                        "type" : "double",
                        "defaultValue" : 0.0,
                        "interp" : "eioe"
                      }
                    },
                    "effects" : [

                    ],
                    "start" : 1838,
                    "duration" : 91,
                    "mediaStart" : 0,
                    "mediaDuration" : 91,
                    "scalar" : 1,
                    "metadata" : {
                      "AppliedThemeId" : "e59eeb42-ccf0-4a36-bdf9-e630fdab686d",
                      "clipSpeedAttribute" : false,
                      "default-scale" : "1",
                      "effectApplied" : "none"
                    },
                    "animationTracks" : {

                    }
                  }
                ]
              },
              {
                "trackIndex" : 4,
                "medias" : [
                  {
                    "id" : 23,
                    "_type" : "Callout",
                    "def" : {
                      "kind" : "remix",
                      "shape" : "text",
                      "style" : "abstract",
                      "height" : {
                        "type" : "double",
                        "defaultValue" : 150.483853423341,
                        "interp" : "linr"
                      },
                      "line-spacing" : {
                        "type" : "double",
                        "defaultValue" : 0.0,
                        "interp" : "linr"
                      },
                      "width" : {
                        "type" : "double",
                        "defaultValue" : 349.280176737318,
                        "interp" : "linr"
                      },
                      "word-wrap" : {
                        "type" : "double",
                        "defaultValue" : 1.0,
                        "interp" : "linr"
                      },
                      "horizontal-alignment" : "left",
                      "resize-behavior" : "resizeText",
                      "text" : "calibration",
                      "vertical-alignment" : "center",
                      "font" : {
                        "color-blue" : {
                          "type" : "double",
                          "defaultValue" : 0.890196078431372,
                          "interp" : "linr"
                        },
                        "color-green" : {
                          "type" : "double",
                          "defaultValue" : 0.870588235294118,
                          "interp" : "linr"
                        },
                        "color-red" : {
                          "type" : "double",
                          "defaultValue" : 0.847058823529412,
                          "interp" : "linr"
                        },
                        "size" : {
                          "type" : "double",
                          "defaultValue" : 96.0,
                          "interp" : "linr"
                        },
                        "tracking" : {
                          "type" : "double",
                          "defaultValue" : 0.0,
                          "interp" : "linr"
                        },
                        "name" : "Montserrat",
                        "weight" : "Regular"
                      },
                      "textAttributes" : {
                        "type" : "textAttributeList",
                        "keyframes" : [
                          {
                            "endTime" : 0,
                            "time" : 0,
                            "value" : [{"name":"fontWeight","rangeEnd":11,"rangeStart":0,"value":400,"valueType":"int"},{"name":"fontSize","rangeEnd":11,"rangeStart":0,"value":86,"valueType":"double"},{"name":"strikethrough","rangeEnd":11,"rangeStart":0,"value":0,"valueType":"int"},{"name":"fontName","rangeEnd":11,"rangeStart":0,"value":"Montserrat","valueType":"string"},{"name":"kerning","rangeEnd":11,"rangeStart":0,"value":0,"valueType":"double"},{"name":"underline","rangeEnd":11,"rangeStart":0,"value":0,"valueType":"int"},{"name":"fgColor","rangeEnd":11,"rangeStart":0,"value":"(35,40,47,255)","valueType":"color"},{"name":"fontItalic","rangeEnd":11,"rangeStart":0,"value":0,"valueType":"int"}],
                            "duration" : 0
                          }
                        ]
                      }
                    },
                    "attributes" : {
                      "autoRotateText" : true
                    },
                    "parameters" : {
                      "translation0" : {
                        "type" : "double",
                        "defaultValue" : -377.598083623359,
                        "interp" : "eioe"
                      },
                      "translation1" : {
                        "type" : "double",
                        "defaultValue" : 225.918101079325,
                        "interp" : "eioe"
                      },
                      "sourceCrop0" : {
                        "type" : "double",
                        "defaultValue" : 0.0,
                        "interp" : "eioe"
                      },
                      "sourceCrop1" : {
                        "type" : "double",
                        "defaultValue" : 0.0,
                        "interp" : "eioe"
                      },
                      "sourceCrop2" : {
                        "type" : "double",
                        "defaultValue" : 0.0,
                        "interp" : "eioe"
                      },
                      "sourceCrop3" : {
                        "type" : "double",
                        "defaultValue" : 0.0,
                        "interp" : "eioe"
                      },
                      "geometryCrop0" : {
                        "type" : "double",
                        "defaultValue" : 0.0,
                        "interp" : "eioe"
                      },
                      "geometryCrop1" : {
                        "type" : "double",
                        "defaultValue" : 0.0,
                        "interp" : "eioe"
                      },
                      "geometryCrop2" : {
                        "type" : "double",
                        "defaultValue" : 0.0,
                        "interp" : "eioe"
                      },
                      "geometryCrop3" : {
                        "type" : "double",
                        "defaultValue" : 0.0,
                        "interp" : "eioe"
                      }
                    },
                    "effects" : [

                    ],
                    "start" : 104,
                    "duration" : 182,
                    "mediaStart" : 0,
                    "mediaDuration" : 182,
                    "scalar" : 1,
                    "metadata" : {
                      "AppliedThemeId" : "e59eeb42-ccf0-4a36-bdf9-e630fdab686d",
                      "clipSpeedAttribute" : false,
                      "default-scale" : "1",
                      "default-text" : "{\\rtf1\\ansi\\ansicpg1252\\cocoartf2638\n\\cocoatextscaling0\\cocoaplatform0{\\fonttbl\\f0\\fnil\\fcharset0 Montserrat-Regular;}\n{\\colortbl;\\red255\\green255\\blue255;\\red207\\green214\\blue220;}\n{\\*\\expandedcolortbl;;\\cssrgb\\c84706\\c87059\\c89020;}\n\\pard\\tx560\\tx1120\\tx1680\\tx2240\\tx2800\\tx3360\\tx3920\\tx4480\\tx5040\\tx5600\\tx6160\\tx6720\\pardirnatural\\qc\\partightenfactor0\n\n\\f0\\fs186 \\cf2 \\expnd0\\expndtw0\\kerning0\n\\ulnone We first \n\\fs178 load the \n\\fs206 dataset}",
                      "effectApplied" : "none",
                      "lockAspectRatio" : true
                    },
                    "animationTracks" : {

                    }
                  },
                  {
                    "id" : 24,
                    "_type" : "Callout",
                    "def" : {
                      "kind" : "remix",
                      "shape" : "shape-rectangle",
                      "style" : "abstract",
                      "fill-color-blue" : 0.0,
                      "fill-color-green" : 0.6,
                      "fill-color-opacity" : 1.0,
                      "fill-color-red" : 1.0,
                      "height" : 446.588093917019,
                      "stroke-color-blue" : 1.0,
                      "stroke-color-green" : 1.0,
                      "stroke-color-opacity" : 1.0,
                      "stroke-color-red" : 1.0,
                      "stroke-width" : 0.0,
                      "width" : 235.400952205044,
                      "fill-style" : "solid",
                      "stroke-style" : "solid"
                    },
                    "attributes" : {
                      "autoRotateText" : true
                    },
                    "parameters" : {
                      "translation0" : -206.504469316125,
                      "translation1" : 334.485155429847,
                      "sourceCrop0" : 0.0,
                      "sourceCrop1" : 0.0,
                      "sourceCrop2" : 0.0,
                      "sourceCrop3" : 0.0,
                      "geometryCrop0" : 0.0,
                      "geometryCrop1" : 0.0,
                      "geometryCrop2" : 158.177762840152,
                      "geometryCrop3" : 0.0,
                      "opacity" : 0.213437497615814
                    },
                    "effects" : [

                    ],
                    "start" : 792,
                    "duration" : 267,
                    "mediaStart" : -117,
                    "mediaDuration" : 267,
                    "scalar" : 1,
                    "metadata" : {
                      "AppliedThemeId" : "e59eeb42-ccf0-4a36-bdf9-e630fdab686d",
                      "clipSpeedAttribute" : false,
                      "default-callout-fill-color" : "(115,153,34,255)",
                      "default-scale" : "1",
                      "effectApplied" : "none",
                      "lockAspectRatio" : true
                    },
                    "animationTracks" : {

                    }
                  },
                  {
                    "id" : 25,
                    "_type" : "Callout",
                    "def" : {
                      "kind" : "remix",
                      "shape" : "arrow",
                      "style" : "abstract",
                      "stroke-color-blue" : {
                        "type" : "double",
                        "defaultValue" : 0.133333333333333,
                        "interp" : "linr"
                      },
                      "stroke-color-green" : {
                        "type" : "double",
                        "defaultValue" : 0.6,
                        "interp" : "linr"
                      },
                      "stroke-color-opacity" : {
                        "type" : "double",
                        "defaultValue" : 1.0,
                        "interp" : "linr"
                      },
                      "stroke-color-red" : {
                        "type" : "double",
                        "defaultValue" : 0.450980392156863,
                        "interp" : "linr"
                      },
                      "stroke-width" : {
                        "type" : "double",
                        "defaultValue" : 8.0,
                        "interp" : "linr"
                      },
                      "tail-x" : {
                        "type" : "double",
                        "defaultValue" : -317.126472977729,
                        "interp" : "eioe"
                      },
                      "tail-y" : {
                        "type" : "double",
                        "defaultValue" : -362.698408541525,
                        "interp" : "eioe"
                      },
                      "shape-anchor" : "none",
                      "shape-tail" : "arrow",
                      "stroke-style" : "dot"
                    },
                    "attributes" : {
                      "autoRotateText" : true
                    },
                    "parameters" : {
                      "translation0" : {
                        "type" : "double",
                        "defaultValue" : 163.961996093733,
                        "interp" : "eioe"
                      },
                      "translation1" : {
                        "type" : "double",
                        "defaultValue" : -14.3904728785551,
                        "interp" : "eioe"
                      },
                      "sourceCrop0" : {
                        "type" : "double",
                        "defaultValue" : 0.0,
                        "interp" : "eioe"
                      },
                      "sourceCrop1" : {
                        "type" : "double",
                        "defaultValue" : 0.0,
                        "interp" : "eioe"
                      },
                      "sourceCrop2" : {
                        "type" : "double",
                        "defaultValue" : 0.0,
                        "interp" : "eioe"
                      },
                      "sourceCrop3" : {
                        "type" : "double",
                        "defaultValue" : 0.0,
                        "interp" : "eioe"
                      },
                      "geometryCrop0" : {
                        "type" : "double",
                        "defaultValue" : 0.0,
                        "interp" : "eioe"
                      },
                      "geometryCrop1" : {
                        "type" : "double",
                        "defaultValue" : 0.0,
                        "interp" : "eioe"
                      },
                      "geometryCrop2" : {
                        "type" : "double",
                        "defaultValue" : 0.0,
                        "interp" : "eioe"
                      },
                      "geometryCrop3" : {
                        "type" : "double",
                        "defaultValue" : 0.0,
                        "interp" : "eioe"
                      }
                    },
                    "effects" : [

                    ],
                    "start" : 1838,
                    "duration" : 91,
                    "mediaStart" : 0,
                    "mediaDuration" : 91,
                    "scalar" : 1,
                    "metadata" : {
                      "AppliedThemeId" : "e59eeb42-ccf0-4a36-bdf9-e630fdab686d",
                      "clipSpeedAttribute" : false,
                      "default-scale" : "1",
                      "effectApplied" : "none"
                    },
                    "animationTracks" : {

                    }
                  }
                ]
              },
              {
                "trackIndex" : 5,
                "medias" : [
                  {
                    "id" : 26,
                    "_type" : "Callout",
                    "def" : {
                      "kind" : "remix",
                      "shape" : "text",
                      "style" : "abstract",
                      "height" : {
                        "type" : "double",
                        "defaultValue" : 150.483853423341,
                        "interp" : "linr"
                      },
                      "line-spacing" : {
                        "type" : "double",
                        "defaultValue" : 0.0,
                        "interp" : "linr"
                      },
                      "width" : {
                        "type" : "double",
                        "defaultValue" : 349.280176737318,
                        "interp" : "linr"
                      },
                      "word-wrap" : {
                        "type" : "double",
                        "defaultValue" : 1.0,
                        "interp" : "linr"
                      },
                      "horizontal-alignment" : "left",
                      "resize-behavior" : "resizeText",
                      "text" : "heartbeats",
                      "vertical-alignment" : "center",
                      "font" : {
                        "color-blue" : {
                          "type" : "double",
                          "defaultValue" : 0.890196078431372,
                          "interp" : "linr"
                        },
                        "color-green" : {
                          "type" : "double",
                          "defaultValue" : 0.870588235294118,
                          "interp" : "linr"
                        },
                        "color-red" : {
                          "type" : "double",
                          "defaultValue" : 0.847058823529412,
                          "interp" : "linr"
                        },
                        "size" : {
                          "type" : "double",
                          "defaultValue" : 96.0,
                          "interp" : "linr"
                        },
                        "tracking" : {
                          "type" : "double",
                          "defaultValue" : 0.0,
                          "interp" : "linr"
                        },
                        "name" : "Montserrat",
                        "weight" : "Regular"
                      },
                      "textAttributes" : {
                        "type" : "textAttributeList",
                        "keyframes" : [
                          {
                            "endTime" : 0,
                            "time" : 0,
                            "value" : [{"name":"fontName","rangeEnd":10,"rangeStart":0,"value":"Montserrat","valueType":"string"},{"name":"strikethrough","rangeEnd":10,"rangeStart":0,"value":0,"valueType":"int"},{"name":"underline","rangeEnd":10,"rangeStart":0,"value":0,"valueType":"int"},{"name":"fontItalic","rangeEnd":10,"rangeStart":0,"value":0,"valueType":"int"},{"name":"fontSize","rangeEnd":10,"rangeStart":0,"value":86,"valueType":"double"},{"name":"fontWeight","rangeEnd":10,"rangeStart":0,"value":400,"valueType":"int"},{"name":"fgColor","rangeEnd":10,"rangeStart":0,"value":"(35,40,47,255)","valueType":"color"},{"name":"kerning","rangeEnd":10,"rangeStart":0,"value":0,"valueType":"double"}],
                            "duration" : 0
                          }
                        ]
                      }
                    },
                    "attributes" : {
                      "autoRotateText" : true
                    },
                    "parameters" : {
                      "translation0" : {
                        "type" : "double",
                        "defaultValue" : 444.401916376641,
                        "interp" : "eioe"
                      },
                      "translation1" : {
                        "type" : "double",
                        "defaultValue" : 226.918101079325,
                        "interp" : "eioe"
                      },
                      "sourceCrop0" : {
                        "type" : "double",
                        "defaultValue" : 0.0,
                        "interp" : "eioe"
                      },
                      "sourceCrop1" : {
                        "type" : "double",
                        "defaultValue" : 0.0,
                        "interp" : "eioe"
                      },
                      "sourceCrop2" : {
                        "type" : "double",
                        "defaultValue" : 0.0,
                        "interp" : "eioe"
                      },
                      "sourceCrop3" : {
                        "type" : "double",
                        "defaultValue" : 0.0,
                        "interp" : "eioe"
                      },
                      "geometryCrop0" : {
                        "type" : "double",
                        "defaultValue" : 0.0,
                        "interp" : "eioe"
                      },
                      "geometryCrop1" : {
                        "type" : "double",
                        "defaultValue" : 0.0,
                        "interp" : "eioe"
                      },
                      "geometryCrop2" : {
                        "type" : "double",
                        "defaultValue" : 0.0,
                        "interp" : "eioe"
                      },
                      "geometryCrop3" : {
                        "type" : "double",
                        "defaultValue" : 0.0,
                        "interp" : "eioe"
                      }
                    },
                    "effects" : [

                    ],
                    "start" : 104,
                    "duration" : 182,
                    "mediaStart" : 0,
                    "mediaDuration" : 182,
                    "scalar" : 1,
                    "metadata" : {
                      "AppliedThemeId" : "e59eeb42-ccf0-4a36-bdf9-e630fdab686d",
                      "clipSpeedAttribute" : false,
                      "default-scale" : "1",
                      "default-text" : "{\\rtf1\\ansi\\ansicpg1252\\cocoartf2638\n\\cocoatextscaling0\\cocoaplatform0{\\fonttbl\\f0\\fnil\\fcharset0 Montserrat-Regular;}\n{\\colortbl;\\red255\\green255\\blue255;\\red207\\green214\\blue220;}\n{\\*\\expandedcolortbl;;\\cssrgb\\c84706\\c87059\\c89020;}\n\\pard\\tx560\\tx1120\\tx1680\\tx2240\\tx2800\\tx3360\\tx3920\\tx4480\\tx5040\\tx5600\\tx6160\\tx6720\\pardirnatural\\qc\\partightenfactor0\n\n\\f0\\fs186 \\cf2 \\expnd0\\expndtw0\\kerning0\n\\ulnone We first \n\\fs178 load the \n\\fs206 dataset}",
                      "effectApplied" : "none",
                      "lockAspectRatio" : true
                    },
                    "animationTracks" : {

                    }
                  },
                  {
                    "id" : 27,
                    "_type" : "Callout",
                    "def" : {
                      "kind" : "remix",
                      "shape" : "text",
                      "style" : "abstract",
                      "height" : 250.0,
                      "line-spacing" : 0.0,
                      "width" : 764.015543384597,
                      "word-wrap" : 1.0,
                      "horizontal-alignment" : "center",
                      "resize-behavior" : "resizeText",
                      "text" : "16 heatbeats",
                      "vertical-alignment" : "center",
                      "font" : {
                        "color-blue" : 0.890196078431372,
                        "color-green" : 0.870588235294118,
                        "color-red" : 0.847058823529412,
                        "size" : 96.0,
                        "tracking" : 0.0,
                        "name" : "Montserrat",
                        "weight" : "Regular"
                      },
                      "textAttributes" : {
                        "type" : "textAttributeList",
                        "keyframes" : [
                          {
                            "endTime" : 0,
                            "time" : 0,
                            "value" : [{"name":"fontItalic","rangeEnd":12,"rangeStart":0,"value":0,"valueType":"int"},{"name":"kerning","rangeEnd":12,"rangeStart":0,"value":0,"valueType":"double"},{"name":"fontWeight","rangeEnd":12,"rangeStart":0,"value":400,"valueType":"int"},{"name":"fontName","rangeEnd":12,"rangeStart":0,"value":"Montserrat","valueType":"string"},{"name":"underline","rangeEnd":12,"rangeStart":0,"value":0,"valueType":"int"},{"name":"fontSize","rangeEnd":12,"rangeStart":0,"value":64,"valueType":"double"},{"name":"fgColor","rangeEnd":12,"rangeStart":0,"value":"(35,40,47,255)","valueType":"color"},{"name":"strikethrough","rangeEnd":12,"rangeStart":0,"value":0,"valueType":"int"}],
                            "duration" : 0
                          }
                        ]
                      }
                    },
                    "attributes" : {
                      "autoRotateText" : true
                    },
                    "parameters" : {
                      "translation0" : 136.384445399551,
                      "translation1" : 149.734843747177,
                      "sourceCrop0" : 0.0,
                      "sourceCrop1" : 0.0,
                      "sourceCrop2" : 0.0,
                      "sourceCrop3" : 0.0,
                      "geometryCrop0" : 0.0,
                      "geometryCrop1" : 0.0,
                      "geometryCrop2" : 0.0,
                      "geometryCrop3" : 0.0
                    },
                    "effects" : [

                    ],
                    "start" : 1838,
                    "duration" : 91,
                    "mediaStart" : 0,
                    "mediaDuration" : 91,
                    "scalar" : 1,
                    "metadata" : {
                      "AppliedThemeId" : "e59eeb42-ccf0-4a36-bdf9-e630fdab686d",
                      "clipSpeedAttribute" : false,
                      "default-scale" : "1",
                      "default-text" : "{\\rtf1\\ansi\\ansicpg1252\\cocoartf2638\n\\cocoatextscaling0\\cocoaplatform0{\\fonttbl\\f0\\fnil\\fcharset0 Montserrat-Regular;}\n{\\colortbl;\\red255\\green255\\blue255;\\red207\\green214\\blue220;}\n{\\*\\expandedcolortbl;;\\cssrgb\\c84706\\c87059\\c89020;}\n\\pard\\tx560\\tx1120\\tx1680\\tx2240\\tx2800\\tx3360\\tx3920\\tx4480\\tx5040\\tx5600\\tx6160\\tx6720\\pardirnatural\\qc\\partightenfactor0\n\n\\f0\\fs192 \\cf2 \\expnd0\\expndtw0\\kerning0\n\\ulnone heartbeats}",
                      "effectApplied" : "none"
                    },
                    "animationTracks" : {

                    }
                  }
                ]
              },
              {
                "trackIndex" : 6,
                "medias" : [
                  {
                    "id" : 28,
                    "_type" : "Callout",
                    "def" : {
                      "kind" : "remix",
                      "shape" : "text",
                      "style" : "abstract",
                      "height" : {
                        "type" : "double",
                        "defaultValue" : 250.0,
                        "interp" : "linr"
                      },
                      "line-spacing" : {
                        "type" : "double",
                        "defaultValue" : 0.0,
                        "interp" : "linr"
                      },
                      "width" : {
                        "type" : "double",
                        "defaultValue" : 400.0,
                        "interp" : "linr"
                      },
                      "word-wrap" : {
                        "type" : "double",
                        "defaultValue" : 1.0,
                        "interp" : "linr"
                      },
                      "horizontal-alignment" : "center",
                      "resize-behavior" : "resizeText",
                      "text" : "6 calibration",
                      "vertical-alignment" : "center",
                      "font" : {
                        "color-blue" : {
                          "type" : "double",
                          "defaultValue" : 0.890196078431372,
                          "interp" : "linr"
                        },
                        "color-green" : {
                          "type" : "double",
                          "defaultValue" : 0.870588235294118,
                          "interp" : "linr"
                        },
                        "color-red" : {
                          "type" : "double",
                          "defaultValue" : 0.847058823529412,
                          "interp" : "linr"
                        },
                        "size" : {
                          "type" : "double",
                          "defaultValue" : 96.0,
                          "interp" : "linr"
                        },
                        "tracking" : {
                          "type" : "double",
                          "defaultValue" : 0.0,
                          "interp" : "linr"
                        },
                        "name" : "Montserrat",
                        "weight" : "Regular"
                      },
                      "textAttributes" : {
                        "type" : "textAttributeList",
                        "keyframes" : [
                          {
                            "endTime" : 0,
                            "time" : 0,
                            "value" : [{"name":"fgColor","rangeEnd":13,"rangeStart":0,"value":"(35,40,47,255)","valueType":"color"},{"name":"fontWeight","rangeEnd":13,"rangeStart":0,"value":400,"valueType":"int"},{"name":"fontItalic","rangeEnd":13,"rangeStart":0,"value":0,"valueType":"int"},{"name":"underline","rangeEnd":13,"rangeStart":0,"value":0,"valueType":"int"},{"name":"fontSize","rangeEnd":13,"rangeStart":0,"value":48,"valueType":"double"},{"name":"fontName","rangeEnd":13,"rangeStart":0,"value":"Montserrat","valueType":"string"},{"name":"strikethrough","rangeEnd":13,"rangeStart":0,"value":0,"valueType":"int"},{"name":"kerning","rangeEnd":13,"rangeStart":0,"value":0,"valueType":"double"}],
                            "duration" : 0
                          }
                        ]
                      }
                    },
                    "attributes" : {
                      "autoRotateText" : true
                    },
                    "parameters" : {
                      "translation0" : {
                        "type" : "double",
                        "defaultValue" : -377.623326292747,
                        "interp" : "eioe"
                      },
                      "translation1" : {
                        "type" : "double",
                        "defaultValue" : 252.734843747177,
                        "interp" : "eioe"
                      },
                      "sourceCrop0" : {
                        "type" : "double",
                        "defaultValue" : 0.0,
                        "interp" : "eioe"
                      },
                      "sourceCrop1" : {
                        "type" : "double",
                        "defaultValue" : 0.0,
                        "interp" : "eioe"
                      },
                      "sourceCrop2" : {
                        "type" : "double",
                        "defaultValue" : 0.0,
                        "interp" : "eioe"
                      },
                      "sourceCrop3" : {
                        "type" : "double",
                        "defaultValue" : 0.0,
                        "interp" : "eioe"
                      },
                      "geometryCrop0" : {
                        "type" : "double",
                        "defaultValue" : 0.0,
                        "interp" : "eioe"
                      },
                      "geometryCrop1" : {
                        "type" : "double",
                        "defaultValue" : 0.0,
                        "interp" : "eioe"
                      },
                      "geometryCrop2" : {
                        "type" : "double",
                        "defaultValue" : 0.0,
                        "interp" : "eioe"
                      },
                      "geometryCrop3" : {
                        "type" : "double",
                        "defaultValue" : 0.0,
                        "interp" : "eioe"
                      }
                    },
                    "effects" : [

                    ],
                    "start" : 1838,
                    "duration" : 91,
                    "mediaStart" : 0,
                    "mediaDuration" : 91,
                    "scalar" : 1,
                    "metadata" : {
                      "AppliedThemeId" : "e59eeb42-ccf0-4a36-bdf9-e630fdab686d",
                      "clipSpeedAttribute" : false,
                      "default-scale" : "1",
                      "default-text" : "{\\rtf1\\ansi\\ansicpg1252\\cocoartf2638\n\\cocoatextscaling0\\cocoaplatform0{\\fonttbl\\f0\\fnil\\fcharset0 Montserrat-Regular;}\n{\\colortbl;\\red255\\green255\\blue255;\\red207\\green214\\blue220;}\n{\\*\\expandedcolortbl;;\\cssrgb\\c84706\\c87059\\c89020;}\n\\pard\\tx560\\tx1120\\tx1680\\tx2240\\tx2800\\tx3360\\tx3920\\tx4480\\tx5040\\tx5600\\tx6160\\tx6720\\pardirnatural\\qc\\partightenfactor0\n\n\\f0\\fs192 \\cf2 \\expnd0\\expndtw0\\kerning0\n\\ulnone heartbeats}",
                      "effectApplied" : "none"
                    },
                    "animationTracks" : {

                    }
                  }
                ]
              }            ]
          }
        }
      ]
    },
    "trackAttributes" : [
      {
        "ident" : "",
        "audioMuted" : false,
        "videoHidden" : false,
        "magnetic" : false,
        "matte" : 0,
        "solo" : false,
        "metadata" : {
          "IsLocked" : "False",
          "trackHeight" : "22"
        }
      },
      {
        "ident" : "",
        "audioMuted" : false,
        "videoHidden" : false,
        "magnetic" : false,
        "matte" : 0,
        "solo" : false,
        "metadata" : {
          "IsLocked" : "False",
          "trackHeight" : "22"
        }
      },
      {
        "ident" : "",
        "audioMuted" : false,
        "videoHidden" : false,
        "magnetic" : false,
        "matte" : 0,
        "solo" : false,
        "metadata" : {
          "IsLocked" : "False",
          "trackHeight" : "22"
        }
      },
      {
        "ident" : "",
        "audioMuted" : false,
        "videoHidden" : false,
        "magnetic" : false,
        "matte" : 0,
        "solo" : false,
        "metadata" : {
          "IsLocked" : "False",
          "trackHeight" : "22"
        }
      },
      {
        "ident" : "",
        "audioMuted" : false,
        "videoHidden" : false,
        "magnetic" : false,
        "matte" : 0,
        "solo" : false,
        "metadata" : {
          "IsLocked" : "False",
          "trackHeight" : "22"
        }
      },
      {
        "ident" : "",
        "audioMuted" : false,
        "videoHidden" : false,
        "magnetic" : false,
        "matte" : 0,
        "solo" : false,
        "metadata" : {
          "IsLocked" : "False",
          "trackHeight" : "22"
        }
      },
      {
        "ident" : "",
        "audioMuted" : false,
        "videoHidden" : false,
        "magnetic" : false,
        "matte" : 0,
        "solo" : false,
        "metadata" : {
          "IsLocked" : "False",
          "trackHeight" : "22"
        }
      }
    ],
    "captionAttributes" : {
      "enabled" : true,
      "fontName" : "Arial",
      "fontSize" : 32,
      "backgroundColor" : [ 0, 0, 0, 204],
      "foregroundColor" : [ 255, 255, 255, 255],
      "lang" : "de",
      "alignment" : 0,
      "defaultFontSize" : true,
      "opacity" : 0.5,
      "backgroundEnabled" : true,
      "backgroundOnlyAroundText" : true
    },
    "gain" : 1.0,
    "legacyAttenuateAudioMix" : false,
    "backgroundColor" : [ 0, 0, 0, 255],
    "metadata" : {
      "RecordingHeight" : "1800",
      "RecordingWidth" : "2880"
    }
  },
  "metadata" : {
    "activeThemeId" : "e59eeb42-ccf0-4a36-bdf9-e630fdab686d",
    "audiateSessionId" : "",
    "firstMedia" : true,
    "hasNotifiedAboutHFRMedia" : false
  }
}
